{
.appVersion = "1357";
copyright = "Copyright 2017-2021 Google Inc. All Rights Reserved.";
customParameters = (
{
name = Axes;
value = (
{
Name = Weight;
Tag = wght;
}
);
},
{
name = "Enforce Compatibility Check";
value = 1;
},
{
name = glyphOrder;
value = (
.notdef,
NULL,
CR,
space,
uni00A0,
uni25CC,
u16AD0,
u16AD1,
u16AD2,
u16AD3,
u16AD4,
u16AD5,
u16AD6,
u16AD7,
u16AD8,
u16AD9,
u16ADA,
u16ADB,
u16ADC,
u16ADD,
u16ADE,
u16ADF,
u16AE0,
u16AE1,
u16AE2,
u16AE3,
u16AE4,
u16AE5,
u16AE6,
u16AE7,
u16AE8,
u16AE9,
u16AEA,
u16AEB,
u16AEC,
u16AED,
u16AF0,
u16AF1,
u16AF2,
u16AF3,
u16AF4,
u16AF5,
u16AF1.sm,
u16AF2.sm,
u16AF4.sm,
u16AF1.sm1,
u16AF4.sm1,
u16AF1.sm2,
u16AF4.sm2
);
},
{
name = description;
value = "Designed by Monotype design team.";
},
{
name = license;
value = "This Font Software is licensed under the SIL Open Font License, Version 1.1. This Font Software is distributed on an \"AS IS\" BASIS, WITHOUT WARRANTIES OR CONDITIONS OF ANY KIND, either express or implied. See the SIL Open Font License for the specific language, permissions and limitations governing your use of this Font Software.";
},
{
name = licenseURL;
value = "http://scripts.sil.org/OFL";
},
{
name = vendorID;
value = GOOG;
},
{
name = unicodeRanges;
value = (
0,
1,
45,
57
);
},
{
name = trademark;
value = "Noto is a trademark of Google Inc.";
},
{
name = "Has WWS Names";
value = 1;
},
{
name = versionString;
value = "Version 2.001";
},
{
name = fsType;
value = (
);
},
{
name = codePageRanges;
value = (
"1252"
);
},
{
name = "Variable Font Origin";
value = UUID0;
},
{
name = variableFileName;
value = NotoSansBassaVahVar;
},
{
name = "Variable Font Family Name";
value = "Noto Sans Bassa Vah Var";
},
{
name = "TrueType Curve Error";
value = 0.3;
},
{
name = panose;
value = (
2,
11,
5,
2,
4,
5,
4,
2,
2,
4
);
}
);
date = "2021-12-22 17:39:56 +0000";
designer = "Monotype Design Team";
designerURL = "http://www.monotype.com/studio";
disablesAutomaticAlignment = 1;
disablesNiceNames = 1;

glyphs = (
{
glyphname = .notdef;
lastChange = "2021-12-14 16:45:12 +0000";
layers = (
{
layerId = UUID0;
paths = (
{
closed = 1;
nodes = (
"505 0 LINE",
"505 714 LINE",
"94 714 LINE",
"94 0 LINE"
);
},
{
closed = 1;
nodes = (
"145 663 LINE",
"454 663 LINE",
"454 51 LINE",
"145 51 LINE"
);
}
);
width = 600;
},
{
layerId = "B897597A-3AC7-4727-A83A-0CB44A91150E";
paths = (
{
closed = 1;
nodes = (
"505 0 LINE",
"505 714 LINE",
"94 714 LINE",
"94 0 LINE"
);
},
{
closed = 1;
nodes = (
"145 663 LINE",
"454 663 LINE",
"454 51 LINE",
"145 51 LINE"
);
}
);
width = 600;
}
);
script = "";
category = Separator;
subCategory = Other;
},
{
glyphname = uni25CC;
lastChange = "2021-12-14 16:45:12 +0000";
layers = (
{
anchors = (
{
name = center;
position = "{300, 290}";
}
);
layerId = UUID0;
paths = (
{
closed = 1;
nodes = (
"469 423 OFFCURVE",
"481 435 OFFCURVE",
"481 449 CURVE SMOOTH",
"481 463 OFFCURVE",
"469 475 OFFCURVE",
"455 475 CURVE SMOOTH",
"441 475 OFFCURVE",
"429 463 OFFCURVE",
"429 449 CURVE SMOOTH",
"429 435 OFFCURVE",
"441 423 OFFCURVE",
"455 423 CURVE SMOOTH"
);
},
{
closed = 1;
nodes = (
"153 107 OFFCURVE",
"165 119 OFFCURVE",
"165 133 CURVE SMOOTH",
"165 147 OFFCURVE",
"153 159 OFFCURVE",
"139 159 CURVE SMOOTH",
"125 159 OFFCURVE",
"113 147 OFFCURVE",
"113 133 CURVE SMOOTH",
"113 119 OFFCURVE",
"125 107 OFFCURVE",
"139 107 CURVE SMOOTH"
);
},
{
closed = 1;
nodes = (
"227 60 OFFCURVE",
"239 72 OFFCURVE",
"239 86 CURVE SMOOTH",
"239 100 OFFCURVE",
"227 112 OFFCURVE",
"213 112 CURVE SMOOTH",
"199 112 OFFCURVE",
"187 100 OFFCURVE",
"187 86 CURVE SMOOTH",
"187 72 OFFCURVE",
"199 60 OFFCURVE",
"213 60 CURVE SMOOTH"
);
},
{
closed = 1;
nodes = (
"106 181 OFFCURVE",
"118 193 OFFCURVE",
"118 207 CURVE SMOOTH",
"118 221 OFFCURVE",
"106 233 OFFCURVE",
"92 233 CURVE SMOOTH",
"78 233 OFFCURVE",
"66 221 OFFCURVE",
"66 207 CURVE SMOOTH",
"66 193 OFFCURVE",
"78 181 OFFCURVE",
"92 181 CURVE SMOOTH"
);
},
{
closed = 1;
nodes = (
"311 42 OFFCURVE",
"323 54 OFFCURVE",
"323 68 CURVE SMOOTH",
"323 82 OFFCURVE",
"311 94 OFFCURVE",
"297 94 CURVE SMOOTH",
"283 94 OFFCURVE",
"271 82 OFFCURVE",
"271 68 CURVE SMOOTH",
"271 54 OFFCURVE",
"283 42 OFFCURVE",
"297 42 CURVE SMOOTH"
);
},
{
closed = 1;
nodes = (
"88 265 OFFCURVE",
"100 277 OFFCURVE",
"100 291 CURVE SMOOTH",
"100 305 OFFCURVE",
"88 317 OFFCURVE",
"74 317 CURVE SMOOTH",
"60 317 OFFCURVE",
"48 305 OFFCURVE",
"48 291 CURVE SMOOTH",
"48 277 OFFCURVE",
"60 265 OFFCURVE",
"74 265 CURVE SMOOTH"
);
},
{
closed = 1;
nodes = (
"395 60 OFFCURVE",
"407 72 OFFCURVE",
"407 86 CURVE SMOOTH",
"407 100 OFFCURVE",
"395 112 OFFCURVE",
"381 112 CURVE SMOOTH",
"367 112 OFFCURVE",
"355 100 OFFCURVE",
"355 86 CURVE SMOOTH",
"355 72 OFFCURVE",
"367 60 OFFCURVE",
"381 60 CURVE SMOOTH"
);
},
{
closed = 1;
nodes = (
"106 349 OFFCURVE",
"118 361 OFFCURVE",
"118 375 CURVE SMOOTH",
"118 389 OFFCURVE",
"106 401 OFFCURVE",
"92 401 CURVE SMOOTH",
"78 401 OFFCURVE",
"66 389 OFFCURVE",
"66 375 CURVE SMOOTH",
"66 361 OFFCURVE",
"78 349 OFFCURVE",
"92 349 CURVE SMOOTH"
);
},
{
closed = 1;
nodes = (
"153 423 OFFCURVE",
"165 435 OFFCURVE",
"165 449 CURVE SMOOTH",
"165 463 OFFCURVE",
"153 475 OFFCURVE",
"139 475 CURVE SMOOTH",
"125 475 OFFCURVE",
"113 463 OFFCURVE",
"113 449 CURVE SMOOTH",
"113 435 OFFCURVE",
"125 423 OFFCURVE",
"139 423 CURVE SMOOTH"
);
},
{
closed = 1;
nodes = (
"469 107 OFFCURVE",
"481 119 OFFCURVE",
"481 133 CURVE SMOOTH",
"481 147 OFFCURVE",
"469 159 OFFCURVE",
"455 159 CURVE SMOOTH",
"441 159 OFFCURVE",
"429 147 OFFCURVE",
"429 133 CURVE SMOOTH",
"429 119 OFFCURVE",
"441 107 OFFCURVE",
"455 107 CURVE SMOOTH"
);
},
{
closed = 1;
nodes = (
"227 470 OFFCURVE",
"239 482 OFFCURVE",
"239 496 CURVE SMOOTH",
"239 510 OFFCURVE",
"227 522 OFFCURVE",
"213 522 CURVE SMOOTH",
"199 522 OFFCURVE",
"187 510 OFFCURVE",
"187 496 CURVE SMOOTH",
"187 482 OFFCURVE",
"199 470 OFFCURVE",
"213 470 CURVE SMOOTH"
);
},
{
closed = 1;
nodes = (
"516 181 OFFCURVE",
"528 193 OFFCURVE",
"528 207 CURVE SMOOTH",
"528 221 OFFCURVE",
"516 233 OFFCURVE",
"502 233 CURVE SMOOTH",
"488 233 OFFCURVE",
"476 221 OFFCURVE",
"476 207 CURVE SMOOTH",
"476 193 OFFCURVE",
"488 181 OFFCURVE",
"502 181 CURVE SMOOTH"
);
},
{
closed = 1;
nodes = (
"311 488 OFFCURVE",
"323 500 OFFCURVE",
"323 514 CURVE SMOOTH",
"323 528 OFFCURVE",
"311 540 OFFCURVE",
"297 540 CURVE SMOOTH",
"283 540 OFFCURVE",
"271 528 OFFCURVE",
"271 514 CURVE SMOOTH",
"271 500 OFFCURVE",
"283 488 OFFCURVE",
"297 488 CURVE SMOOTH"
);
},
{
closed = 1;
nodes = (
"534 265 OFFCURVE",
"546 277 OFFCURVE",
"546 291 CURVE SMOOTH",
"546 305 OFFCURVE",
"534 317 OFFCURVE",
"520 317 CURVE SMOOTH",
"506 317 OFFCURVE",
"494 305 OFFCURVE",
"494 291 CURVE SMOOTH",
"494 277 OFFCURVE",
"506 265 OFFCURVE",
"520 265 CURVE SMOOTH"
);
},
{
closed = 1;
nodes = (
"395 470 OFFCURVE",
"407 482 OFFCURVE",
"407 496 CURVE SMOOTH",
"407 510 OFFCURVE",
"395 522 OFFCURVE",
"381 522 CURVE SMOOTH",
"367 522 OFFCURVE",
"355 510 OFFCURVE",
"355 496 CURVE SMOOTH",
"355 482 OFFCURVE",
"367 470 OFFCURVE",
"381 470 CURVE SMOOTH"
);
},
{
closed = 1;
nodes = (
"516 349 OFFCURVE",
"528 361 OFFCURVE",
"528 375 CURVE SMOOTH",
"528 389 OFFCURVE",
"516 401 OFFCURVE",
"502 401 CURVE SMOOTH",
"488 401 OFFCURVE",
"476 389 OFFCURVE",
"476 375 CURVE SMOOTH",
"476 361 OFFCURVE",
"488 349 OFFCURVE",
"502 349 CURVE SMOOTH"
);
}
);
width = 594;
},
{
anchors = (
{
name = center;
position = "{300, 290}";
}
);
layerId = "B897597A-3AC7-4727-A83A-0CB44A91150E";
paths = (
{
closed = 1;
nodes = (
"469 423 OFFCURVE",
"481 435 OFFCURVE",
"481 449 CURVE SMOOTH",
"481 463 OFFCURVE",
"469 475 OFFCURVE",
"455 475 CURVE SMOOTH",
"441 475 OFFCURVE",
"429 463 OFFCURVE",
"429 449 CURVE SMOOTH",
"429 435 OFFCURVE",
"441 423 OFFCURVE",
"455 423 CURVE SMOOTH"
);
},
{
closed = 1;
nodes = (
"153 107 OFFCURVE",
"165 119 OFFCURVE",
"165 133 CURVE SMOOTH",
"165 147 OFFCURVE",
"153 159 OFFCURVE",
"139 159 CURVE SMOOTH",
"125 159 OFFCURVE",
"113 147 OFFCURVE",
"113 133 CURVE SMOOTH",
"113 119 OFFCURVE",
"125 107 OFFCURVE",
"139 107 CURVE SMOOTH"
);
},
{
closed = 1;
nodes = (
"227 60 OFFCURVE",
"239 72 OFFCURVE",
"239 86 CURVE SMOOTH",
"239 100 OFFCURVE",
"227 112 OFFCURVE",
"213 112 CURVE SMOOTH",
"199 112 OFFCURVE",
"187 100 OFFCURVE",
"187 86 CURVE SMOOTH",
"187 72 OFFCURVE",
"199 60 OFFCURVE",
"213 60 CURVE SMOOTH"
);
},
{
closed = 1;
nodes = (
"106 181 OFFCURVE",
"118 193 OFFCURVE",
"118 207 CURVE SMOOTH",
"118 221 OFFCURVE",
"106 233 OFFCURVE",
"92 233 CURVE SMOOTH",
"78 233 OFFCURVE",
"66 221 OFFCURVE",
"66 207 CURVE SMOOTH",
"66 193 OFFCURVE",
"78 181 OFFCURVE",
"92 181 CURVE SMOOTH"
);
},
{
closed = 1;
nodes = (
"311 42 OFFCURVE",
"323 54 OFFCURVE",
"323 68 CURVE SMOOTH",
"323 82 OFFCURVE",
"311 94 OFFCURVE",
"297 94 CURVE SMOOTH",
"283 94 OFFCURVE",
"271 82 OFFCURVE",
"271 68 CURVE SMOOTH",
"271 54 OFFCURVE",
"283 42 OFFCURVE",
"297 42 CURVE SMOOTH"
);
},
{
closed = 1;
nodes = (
"88 265 OFFCURVE",
"100 277 OFFCURVE",
"100 291 CURVE SMOOTH",
"100 305 OFFCURVE",
"88 317 OFFCURVE",
"74 317 CURVE SMOOTH",
"60 317 OFFCURVE",
"48 305 OFFCURVE",
"48 291 CURVE SMOOTH",
"48 277 OFFCURVE",
"60 265 OFFCURVE",
"74 265 CURVE SMOOTH"
);
},
{
closed = 1;
nodes = (
"395 60 OFFCURVE",
"407 72 OFFCURVE",
"407 86 CURVE SMOOTH",
"407 100 OFFCURVE",
"395 112 OFFCURVE",
"381 112 CURVE SMOOTH",
"367 112 OFFCURVE",
"355 100 OFFCURVE",
"355 86 CURVE SMOOTH",
"355 72 OFFCURVE",
"367 60 OFFCURVE",
"381 60 CURVE SMOOTH"
);
},
{
closed = 1;
nodes = (
"106 349 OFFCURVE",
"118 361 OFFCURVE",
"118 375 CURVE SMOOTH",
"118 389 OFFCURVE",
"106 401 OFFCURVE",
"92 401 CURVE SMOOTH",
"78 401 OFFCURVE",
"66 389 OFFCURVE",
"66 375 CURVE SMOOTH",
"66 361 OFFCURVE",
"78 349 OFFCURVE",
"92 349 CURVE SMOOTH"
);
},
{
closed = 1;
nodes = (
"153 423 OFFCURVE",
"165 435 OFFCURVE",
"165 449 CURVE SMOOTH",
"165 463 OFFCURVE",
"153 475 OFFCURVE",
"139 475 CURVE SMOOTH",
"125 475 OFFCURVE",
"113 463 OFFCURVE",
"113 449 CURVE SMOOTH",
"113 435 OFFCURVE",
"125 423 OFFCURVE",
"139 423 CURVE SMOOTH"
);
},
{
closed = 1;
nodes = (
"469 107 OFFCURVE",
"481 119 OFFCURVE",
"481 133 CURVE SMOOTH",
"481 147 OFFCURVE",
"469 159 OFFCURVE",
"455 159 CURVE SMOOTH",
"441 159 OFFCURVE",
"429 147 OFFCURVE",
"429 133 CURVE SMOOTH",
"429 119 OFFCURVE",
"441 107 OFFCURVE",
"455 107 CURVE SMOOTH"
);
},
{
closed = 1;
nodes = (
"227 470 OFFCURVE",
"239 482 OFFCURVE",
"239 496 CURVE SMOOTH",
"239 510 OFFCURVE",
"227 522 OFFCURVE",
"213 522 CURVE SMOOTH",
"199 522 OFFCURVE",
"187 510 OFFCURVE",
"187 496 CURVE SMOOTH",
"187 482 OFFCURVE",
"199 470 OFFCURVE",
"213 470 CURVE SMOOTH"
);
},
{
closed = 1;
nodes = (
"516 181 OFFCURVE",
"528 193 OFFCURVE",
"528 207 CURVE SMOOTH",
"528 221 OFFCURVE",
"516 233 OFFCURVE",
"502 233 CURVE SMOOTH",
"488 233 OFFCURVE",
"476 221 OFFCURVE",
"476 207 CURVE SMOOTH",
"476 193 OFFCURVE",
"488 181 OFFCURVE",
"502 181 CURVE SMOOTH"
);
},
{
closed = 1;
nodes = (
"311 488 OFFCURVE",
"323 500 OFFCURVE",
"323 514 CURVE SMOOTH",
"323 528 OFFCURVE",
"311 540 OFFCURVE",
"297 540 CURVE SMOOTH",
"283 540 OFFCURVE",
"271 528 OFFCURVE",
"271 514 CURVE SMOOTH",
"271 500 OFFCURVE",
"283 488 OFFCURVE",
"297 488 CURVE SMOOTH"
);
},
{
closed = 1;
nodes = (
"534 265 OFFCURVE",
"546 277 OFFCURVE",
"546 291 CURVE SMOOTH",
"546 305 OFFCURVE",
"534 317 OFFCURVE",
"520 317 CURVE SMOOTH",
"506 317 OFFCURVE",
"494 305 OFFCURVE",
"494 291 CURVE SMOOTH",
"494 277 OFFCURVE",
"506 265 OFFCURVE",
"520 265 CURVE SMOOTH"
);
},
{
closed = 1;
nodes = (
"395 470 OFFCURVE",
"407 482 OFFCURVE",
"407 496 CURVE SMOOTH",
"407 510 OFFCURVE",
"395 522 OFFCURVE",
"381 522 CURVE SMOOTH",
"367 522 OFFCURVE",
"355 510 OFFCURVE",
"355 496 CURVE SMOOTH",
"355 482 OFFCURVE",
"367 470 OFFCURVE",
"381 470 CURVE SMOOTH"
);
},
{
closed = 1;
nodes = (
"516 349 OFFCURVE",
"528 361 OFFCURVE",
"528 375 CURVE SMOOTH",
"528 389 OFFCURVE",
"516 401 OFFCURVE",
"502 401 CURVE SMOOTH",
"488 401 OFFCURVE",
"476 389 OFFCURVE",
"476 375 CURVE SMOOTH",
"476 361 OFFCURVE",
"488 349 OFFCURVE",
"502 349 CURVE SMOOTH"
);
}
);
width = 594;
}
);
unicode = 25CC;
script = default;
category = Letter;
subCategory = Other;
},
{
glyphname = u16AD0;
lastChange = "2021-12-14 16:45:12 +0000";
layers = (
{
layerId = UUID0;
paths = (
{
closed = 1;
nodes = (
"339 0 LINE SMOOTH",
"481 0 OFFCURVE",
"563 69 OFFCURVE",
"563 185 CURVE SMOOTH",
"563 240 OFFCURVE",
"538 310 OFFCURVE",
"454 350 CURVE",
"524 386 OFFCURVE",
"549 444 OFFCURVE",
"549 500 CURVE SMOOTH",
"549 615 OFFCURVE",
"467 674 OFFCURVE",
"324 674 CURVE SMOOTH",
"39 674 LINE",
"39 605 LINE",
"315 605 LINE SMOOTH",
"400 605 OFFCURVE",
"473 579 OFFCURVE",
"473 495 CURVE SMOOTH",
"473 406 OFFCURVE",
"399 381 OFFCURVE",
"273 381 CURVE SMOOTH",
"236 381 LINE",
"236 313 LINE",
"288 313 LINE SMOOTH",
"414 313 OFFCURVE",
"488 285 OFFCURVE",
"488 189 CURVE SMOOTH",
"488 95 OFFCURVE",
"415 68 OFFCURVE",
"330 68 CURVE SMOOTH",
"39 68 LINE",
"39 0 LINE"
);
}
);
width = 627;
},
{
layerId = "B897597A-3AC7-4727-A83A-0CB44A91150E";
paths = (
{
closed = 1;
nodes = (
"348 0 LINE SMOOTH",
"501 0 OFFCURVE",
"588 74 OFFCURVE",
"588 192 CURVE SMOOTH",
"588 258 OFFCURVE",
"559 316 OFFCURVE",
"489 353 CURVE",
"551 390 OFFCURVE",
"575 442 OFFCURVE",
"575 501 CURVE SMOOTH",
"575 613 OFFCURVE",
"490 682 OFFCURVE",
"335 682 CURVE SMOOTH",
"34 682 LINE",
"34 555 LINE",
"319 555 LINE SMOOTH",
"397 555 OFFCURVE",
"437 537 OFFCURVE",
"437 485 CURVE SMOOTH",
"437 431 OFFCURVE",
"399 409 OFFCURVE",
"287 409 CURVE SMOOTH",
"211 409 LINE",
"211 285 LINE",
"303 285 LINE SMOOTH",
"415 285 OFFCURVE",
"449 264 OFFCURVE",
"449 206 CURVE SMOOTH",
"449 151 OFFCURVE",
"411 127 OFFCURVE",
"333 127 CURVE SMOOTH",
"34 127 LINE",
"34 0 LINE"
);
}
);
width = 642;
}
);
rightKerningGroup = u16AD0;
unicode = 16AD0;
script = default;
category = Letter;
subCategory = Other;
},
{
glyphname = u16AD1;
lastChange = "2021-12-14 16:45:12 +0000";
layers = (
{
layerId = UUID0;
paths = (
{
closed = 1;
nodes = (
"151 0 LINE",
"151 427 LINE SMOOTH",
"151 543 OFFCURVE",
"233 615 OFFCURVE",
"358 615 CURVE SMOOTH",
"487 615 OFFCURVE",
"560 534 OFFCURVE",
"560 426 CURVE SMOOTH",
"560 0 LINE",
"633 0 LINE",
"633 417 LINE SMOOTH",
"633 565 OFFCURVE",
"542 684 OFFCURVE",
"356 684 CURVE SMOOTH",
"175 684 OFFCURVE",
"78 574 OFFCURVE",
"78 415 CURVE SMOOTH",
"78 0 LINE"
);
}
);
width = 711;
},
{
layerId = "B897597A-3AC7-4727-A83A-0CB44A91150E";
paths = (
{
closed = 1;
nodes = (
"199 0 LINE",
"199 397 LINE SMOOTH",
"199 513 OFFCURVE",
"260 565 OFFCURVE",
"365 565 CURVE SMOOTH",
"473 565 OFFCURVE",
"530 509 OFFCURVE",
"530 397 CURVE SMOOTH",
"530 0 LINE",
"665 0 LINE",
"665 394 LINE SMOOTH",
"665 568 OFFCURVE",
"573 692 OFFCURVE",
"365 692 CURVE SMOOTH",
"162 692 OFFCURVE",
"65 573 OFFCURVE",
"65 394 CURVE SMOOTH",
"65 0 LINE"
);
}
);
width = 730;
}
);
unicode = 16AD1;
script = default;
category = Letter;
subCategory = Other;
},
{
glyphname = u16AD2;
lastChange = "2021-12-14 16:45:12 +0000";
layers = (
{
layerId = UUID0;
paths = (
{
closed = 1;
nodes = (
"589 0 LINE SMOOTH",
"654 0 OFFCURVE",
"682 44 OFFCURVE",
"688 103 CURVE SMOOTH",
"699 221 LINE SMOOTH",
"706 293 OFFCURVE",
"712 322 OFFCURVE",
"741 322 CURVE",
"746 390 LINE",
"684 390 OFFCURVE",
"636 367 OFFCURVE",
"627 254 CURVE SMOOTH",
"616 115 LINE SMOOTH",
"613 82 OFFCURVE",
"600 68 OFFCURVE",
"574 68 CURVE SMOOTH",
"362 68 LINE SMOOTH",
"322 68 OFFCURVE",
"312 85 OFFCURVE",
"312 114 CURVE SMOOTH",
"312 337 LINE",
"442 337 LINE",
"442 396 LINE",
"312 396 LINE",
"312 533 LINE SMOOTH",
"312 626 OFFCURVE",
"276 674 OFFCURVE",
"187 674 CURVE SMOOTH",
"10 674 LINE",
"10 605 LINE",
"182 605 LINE SMOOTH",
"219 605 OFFCURVE",
"238 583 OFFCURVE",
"238 524 CURVE SMOOTH",
"238 396 LINE",
"115 396 LINE",
"115 337 LINE",
"238 337 LINE",
"238 104 LINE SMOOTH",
"238 44 OFFCURVE",
"281 0 OFFCURVE",
"331 0 CURVE SMOOTH"
);
}
);
width = 795;
},
{
layerId = "B897597A-3AC7-4727-A83A-0CB44A91150E";
paths = (
{
closed = 1;
nodes = (
"583 0 LINE SMOOTH",
"674 0 OFFCURVE",
"710 41 OFFCURVE",
"722 139 CURVE SMOOTH",
"731 220 LINE SMOOTH",
"737 273 OFFCURVE",
"744 291 OFFCURVE",
"774 291 CURVE",
"784 420 LINE",
"699 420 OFFCURVE",
"616 400 OFFCURVE",
"602 274 CURVE SMOOTH",
"591 167 LINE SMOOTH",
"588 133 OFFCURVE",
"579 127 OFFCURVE",
"551 127 CURVE SMOOTH",
"389 127 LINE SMOOTH",
"359 127 OFFCURVE",
"348 138 OFFCURVE",
"348 165 CURVE SMOOTH",
"348 310 LINE",
"473 310 LINE",
"473 427 LINE",
"348 427 LINE",
"348 513 LINE SMOOTH",
"348 626 OFFCURVE",
"299 682 OFFCURVE",
"194 682 CURVE SMOOTH",
"9 682 LINE",
"9 555 LINE",
"162 555 LINE SMOOTH",
"201 555 OFFCURVE",
"213 541 OFFCURVE",
"213 501 CURVE SMOOTH",
"213 427 LINE",
"96 427 LINE",
"96 310 LINE",
"213 310 LINE",
"213 137 LINE SMOOTH",
"213 48 OFFCURVE",
"275 0 OFFCURVE",
"349 0 CURVE SMOOTH"
);
}
);
width = 825;
}
);
rightKerningGroup = u16AD2;
unicode = 16AD2;
script = default;
category = Letter;
subCategory = Other;
},
{
glyphname = u16AD3;
lastChange = "2021-12-14 16:45:12 +0000";
layers = (
{
layerId = UUID0;
paths = (
{
closed = 1;
nodes = (
"546 151 LINE SMOOTH",
"766 151 OFFCURVE",
"813 250 OFFCURVE",
"813 338 CURVE SMOOTH",
"813 454 OFFCURVE",
"730 513 OFFCURVE",
"588 513 CURVE SMOOTH",
"29 513 LINE",
"29 444 LINE",
"579 444 LINE SMOOTH",
"664 444 OFFCURVE",
"737 417 OFFCURVE",
"737 334 CURVE SMOOTH",
"737 245 OFFCURVE",
"663 220 OFFCURVE",
"537 220 CURVE SMOOTH",
"377 220 LINE",
"377 151 LINE"
);
}
);
width = 852;
},
{
layerId = "B897597A-3AC7-4727-A83A-0CB44A91150E";
paths = (
{
closed = 1;
nodes = (
"561 133 LINE SMOOTH",
"761 133 OFFCURVE",
"839 220 OFFCURVE",
"839 344 CURVE SMOOTH",
"839 472 OFFCURVE",
"748 536 OFFCURVE",
"587 536 CURVE SMOOTH",
"24 536 LINE",
"24 409 LINE",
"577 409 LINE SMOOTH",
"662 409 OFFCURVE",
"701 391 OFFCURVE",
"701 336 CURVE SMOOTH",
"701 283 OFFCURVE",
"665 260 OFFCURVE",
"547 260 CURVE SMOOTH",
"374 260 LINE",
"374 133 LINE"
);
}
);
width = 873;
}
);
leftKerningGroup = u16AE8;
rightKerningGroup = u16AD3;
unicode = 16AD3;
script = default;
category = Letter;
subCategory = Other;
},
{
glyphname = u16AD4;
lastChange = "2021-12-14 16:45:12 +0000";
layers = (
{
layerId = UUID0;
paths = (
{
closed = 1;
nodes = (
"493 -10 OFFCURVE",
"555 79 OFFCURVE",
"555 203 CURVE SMOOTH",
"555 424 LINE",
"482 424 LINE",
"482 413 LINE",
"467 357 OFFCURVE",
"415 335 OFFCURVE",
"317 335 CURVE SMOOTH",
"214 335 OFFCURVE",
"139 382 OFFCURVE",
"139 478 CURVE SMOOTH",
"139 576 OFFCURVE",
"222 615 OFFCURVE",
"313 615 CURVE SMOOTH",
"391 615 OFFCURVE",
"456 593 OFFCURVE",
"507 561 CURVE",
"545 617 LINE",
"498 653 OFFCURVE",
"426 684 OFFCURVE",
"310 684 CURVE SMOOTH",
"157 684 OFFCURVE",
"63 592 OFFCURVE",
"63 479 CURVE SMOOTH",
"63 365 OFFCURVE",
"150 267 OFFCURVE",
"315 267 CURVE SMOOTH",
"392 267 OFFCURVE",
"445 282 OFFCURVE",
"482 306 CURVE",
"482 204 LINE SMOOTH",
"482 103 OFFCURVE",
"433 59 OFFCURVE",
"329 59 CURVE SMOOTH",
"228 59 OFFCURVE",
"156 85 OFFCURVE",
"156 188 CURVE SMOOTH",
"156 207 LINE",
"83 207 LINE",
"83 187 LINE SMOOTH",
"83 52 OFFCURVE",
"170 -10 OFFCURVE",
"333 -10 CURVE SMOOTH"
);
}
);
width = 633;
},
{
layerId = "B897597A-3AC7-4727-A83A-0CB44A91150E";
paths = (
{
closed = 1;
nodes = (
"507 -10 OFFCURVE",
"596 77 OFFCURVE",
"596 221 CURVE SMOOTH",
"596 442 LINE",
"462 442 LINE",
"462 425 LINE",
"445 391 OFFCURVE",
"405 374 OFFCURVE",
"333 374 CURVE SMOOTH",
"234 374 OFFCURVE",
"192 411 OFFCURVE",
"192 469 CURVE SMOOTH",
"192 533 OFFCURVE",
"243 565 OFFCURVE",
"337 565 CURVE SMOOTH",
"408 565 OFFCURVE",
"476 549 OFFCURVE",
"529 520 CURVE",
"582 630 LINE",
"520 671 OFFCURVE",
"429 692 OFFCURVE",
"337 692 CURVE SMOOTH",
"158 692 OFFCURVE",
"54 600 OFFCURVE",
"54 473 CURVE SMOOTH",
"54 343 OFFCURVE",
"162 255 OFFCURVE",
"316 255 CURVE SMOOTH",
"376 255 OFFCURVE",
"427 267 OFFCURVE",
"462 290 CURVE",
"462 222 LINE SMOOTH",
"462 149 OFFCURVE",
"424 117 OFFCURVE",
"332 117 CURVE SMOOTH",
"243 117 OFFCURVE",
"205 138 OFFCURVE",
"205 199 CURVE SMOOTH",
"205 206 LINE",
"74 206 LINE",
"74 196 LINE SMOOTH",
"74 59 OFFCURVE",
"172 -10 OFFCURVE",
"337 -10 CURVE SMOOTH"
);
}
);
width = 661;
}
);
unicode = 16AD4;
script = default;
category = Letter;
subCategory = Other;
},
{
glyphname = u16AD5;
lastChange = "2021-12-14 16:45:12 +0000";
layers = (
{
layerId = UUID0;
paths = (
{
closed = 1;
nodes = (
"473 -10 OFFCURVE",
"576 121 OFFCURVE",
"576 291 CURVE SMOOTH",
"576 393 OFFCURVE",
"538 481 OFFCURVE",
"430 544 CURVE",
"391 484 LINE",
"474 437 OFFCURVE",
"500 367 OFFCURVE",
"500 289 CURVE SMOOTH",
"500 149 OFFCURVE",
"425 59 OFFCURVE",
"326 59 CURVE SMOOTH",
"227 59 OFFCURVE",
"139 145 OFFCURVE",
"139 326 CURVE SMOOTH",
"139 494 OFFCURVE",
"216 605 OFFCURVE",
"383 605 CURVE SMOOTH",
"581 605 LINE",
"581 674 LINE",
"388 674 LINE SMOOTH",
"164 674 OFFCURVE",
"63 526 OFFCURVE",
"63 327 CURVE SMOOTH",
"63 120 OFFCURVE",
"180 -10 OFFCURVE",
"322 -10 CURVE SMOOTH"
);
}
);
width = 645;
},
{
layerId = "B897597A-3AC7-4727-A83A-0CB44A91150E";
paths = (
{
closed = 1;
nodes = (
"496 -10 OFFCURVE",
"605 115 OFFCURVE",
"605 282 CURVE SMOOTH",
"605 374 OFFCURVE",
"571 447 OFFCURVE",
"495 501 CURVE",
"394 424 LINE",
"444 385 OFFCURVE",
"466 334 OFFCURVE",
"466 275 CURVE SMOOTH",
"466 182 OFFCURVE",
"415 118 OFFCURVE",
"337 118 CURVE SMOOTH",
"255 118 OFFCURVE",
"192 189 OFFCURVE",
"192 328 CURVE SMOOTH",
"192 468 OFFCURVE",
"254 555 OFFCURVE",
"385 555 CURVE SMOOTH",
"609 555 LINE",
"609 682 LINE",
"390 682 LINE SMOOTH",
"171 682 OFFCURVE",
"54 541 OFFCURVE",
"54 328 CURVE SMOOTH",
"54 117 OFFCURVE",
"178 -10 OFFCURVE",
"336 -10 CURVE SMOOTH"
);
}
);
width = 663;
}
);
leftKerningGroup = u16AE9;
unicode = 16AD5;
script = default;
category = Letter;
subCategory = Other;
},
{
glyphname = u16AD6;
lastChange = "2021-12-14 16:45:12 +0000";
layers = (
{
layerId = UUID0;
paths = (
{
closed = 1;
nodes = (
"402 -10 OFFCURVE",
"507 50 OFFCURVE",
"507 173 CURVE SMOOTH",
"507 281 OFFCURVE",
"440 333 OFFCURVE",
"330 371 CURVE SMOOTH",
"281 388 LINE SMOOTH",
"172 426 OFFCURVE",
"139 457 OFFCURVE",
"139 518 CURVE SMOOTH",
"139 579 OFFCURVE",
"195 615 OFFCURVE",
"278 615 CURVE SMOOTH",
"363 615 OFFCURVE",
"429 576 OFFCURVE",
"429 500 CURVE SMOOTH",
"429 481 LINE",
"502 481 LINE",
"502 507 LINE SMOOTH",
"502 636 OFFCURVE",
"379 684 OFFCURVE",
"277 684 CURVE SMOOTH",
"174 684 OFFCURVE",
"63 626 OFFCURVE",
"63 513 CURVE SMOOTH",
"63 412 OFFCURVE",
"137 360 OFFCURVE",
"243 326 CURVE SMOOTH",
"299 308 LINE SMOOTH",
"392 278 OFFCURVE",
"432 236 OFFCURVE",
"432 172 CURVE SMOOTH",
"432 97 OFFCURVE",
"374 59 OFFCURVE",
"288 59 CURVE SMOOTH",
"203 59 OFFCURVE",
"137 98 OFFCURVE",
"137 173 CURVE SMOOTH",
"137 217 LINE",
"63 217 LINE",
"63 172 LINE SMOOTH",
"63 31 OFFCURVE",
"193 -10 OFFCURVE",
"284 -10 CURVE SMOOTH"
);
}
);
width = 571;
},
{
layerId = "B897597A-3AC7-4727-A83A-0CB44A91150E";
paths = (
{
closed = 1;
nodes = (
"439 -10 OFFCURVE",
"543 67 OFFCURVE",
"543 190 CURVE SMOOTH",
"543 291 OFFCURVE",
"485 356 OFFCURVE",
"352 396 CURVE SMOOTH",
"295 413 LINE SMOOTH",
"207 439 OFFCURVE",
"192 464 OFFCURVE",
"192 492 CURVE SMOOTH",
"192 531 OFFCURVE",
"226 557 OFFCURVE",
"291 557 CURVE SMOOTH",
"361 557 OFFCURVE",
"401 527 OFFCURVE",
"401 478 CURVE SMOOTH",
"401 465 LINE",
"536 465 LINE",
"536 485 LINE SMOOTH",
"536 606 OFFCURVE",
"429 684 OFFCURVE",
"292 684 CURVE SMOOTH",
"159 684 OFFCURVE",
"56 611 OFFCURVE",
"56 488 CURVE SMOOTH",
"56 393 OFFCURVE",
"112 335 OFFCURVE",
"238 296 CURVE SMOOTH",
"302 276 LINE SMOOTH",
"377 253 OFFCURVE",
"405 229 OFFCURVE",
"405 188 CURVE SMOOTH",
"405 141 OFFCURVE",
"368 117 OFFCURVE",
"303 117 CURVE SMOOTH",
"230 117 OFFCURVE",
"189 150 OFFCURVE",
"189 206 CURVE SMOOTH",
"189 224 LINE",
"54 224 LINE",
"54 202 LINE SMOOTH",
"54 65 OFFCURVE",
"159 -10 OFFCURVE",
"296 -10 CURVE SMOOTH"
);
}
);
width = 597;
}
);
unicode = 16AD6;
script = default;
category = Letter;
subCategory = Other;
},
{
glyphname = u16AD7;
lastChange = "2021-12-14 16:45:12 +0000";
layers = (
{
layerId = UUID0;
paths = (
{
closed = 1;
nodes = (
"405 -10 OFFCURVE",
"511 134 OFFCURVE",
"517 366 CURVE",
"703 366 LINE",
"703 435 LINE",
"518 435 LINE",
"518 523 LINE SMOOTH",
"518 619 OFFCURVE",
"477 674 OFFCURVE",
"362 674 CURVE SMOOTH",
"51 674 LINE",
"51 605 LINE",
"361 605 LINE SMOOTH",
"421 605 OFFCURVE",
"444 585 OFFCURVE",
"444 514 CURVE SMOOTH",
"444 435 LINE",
"369 435 LINE SMOOTH",
"152 435 OFFCURVE",
"49 302 OFFCURVE",
"49 174 CURVE SMOOTH",
"49 63 OFFCURVE",
"116 -10 OFFCURVE",
"240 -10 CURVE SMOOTH"
);
},
{
closed = 1;
nodes = (
"158 59 OFFCURVE",
"125 105 OFFCURVE",
"125 175 CURVE SMOOTH",
"125 257 OFFCURVE",
"188 366 OFFCURVE",
"369 366 CURVE SMOOTH",
"444 366 LINE",
"439 162 OFFCURVE",
"365 59 OFFCURVE",
"238 59 CURVE SMOOTH"
);
}
);
width = 732;
},
{
layerId = "B897597A-3AC7-4727-A83A-0CB44A91150E";
paths = (
{
closed = 1;
nodes = (
"433 -10 OFFCURVE",
"545 121 OFFCURVE",
"552 321 CURVE",
"711 321 LINE",
"711 445 LINE",
"555 445 LINE",
"555 501 LINE SMOOTH",
"555 621 OFFCURVE",
"494 682 OFFCURVE",
"370 682 CURVE SMOOTH",
"45 682 LINE",
"45 555 LINE",
"368 555 LINE SMOOTH",
"410 555 OFFCURVE",
"420 544 OFFCURVE",
"420 494 CURVE SMOOTH",
"420 445 LINE",
"370 445 LINE SMOOTH",
"161 445 OFFCURVE",
"41 341 OFFCURVE",
"41 197 CURVE SMOOTH",
"41 71 OFFCURVE",
"130 -10 OFFCURVE",
"264 -10 CURVE SMOOTH"
);
},
{
closed = 1;
nodes = (
"208 117 OFFCURVE",
"179 148 OFFCURVE",
"179 198 CURVE SMOOTH",
"179 267 OFFCURVE",
"241 321 OFFCURVE",
"362 321 CURVE SMOOTH",
"419 321 LINE",
"416 191 OFFCURVE",
"358 117 OFFCURVE",
"266 117 CURVE SMOOTH"
);
}
);
width = 735;
}
);
rightKerningGroup = u16AD3;
unicode = 16AD7;
script = default;
category = Letter;
subCategory = Other;
},
{
glyphname = u16AD8;
lastChange = "2021-12-14 16:45:12 +0000";
layers = (
{
layerId = UUID0;
paths = (
{
closed = 1;
nodes = (
"404 0 LINE",
"454 308 LINE",
"612 308 LINE",
"612 366 LINE",
"463 366 LINE",
"476 442 LINE SMOOTH",
"481 471 OFFCURVE",
"488 526 OFFCURVE",
"488 569 CURVE SMOOTH",
"488 642 OFFCURVE",
"458 674 OFFCURVE",
"368 674 CURVE SMOOTH",
"29 674 LINE",
"29 605 LINE",
"358 605 LINE SMOOTH",
"404 605 OFFCURVE",
"412 585 OFFCURVE",
"412 551 CURVE SMOOTH",
"412 521 OFFCURVE",
"407 486 OFFCURVE",
"403 463 CURVE SMOOTH",
"387 366 LINE",
"117 366 LINE",
"191 473 LINE",
"144 507 LINE",
"49 371 LINE SMOOTH",
"42 360 OFFCURVE",
"38 351 OFFCURVE",
"38 342 CURVE SMOOTH",
"38 321 OFFCURVE",
"56 308 OFFCURVE",
"70 308 CURVE SMOOTH",
"378 308 LINE",
"331 0 LINE"
);
}
);
width = 632;
},
{
layerId = "B897597A-3AC7-4727-A83A-0CB44A91150E";
paths = (
{
closed = 1;
nodes = (
"434 0 LINE",
"477 252 LINE",
"628 252 LINE",
"628 369 LINE",
"496 369 LINE",
"505 422 LINE SMOOTH",
"512 463 OFFCURVE",
"517 506 OFFCURVE",
"517 544 CURVE SMOOTH",
"517 637 OFFCURVE",
"472 682 OFFCURVE",
"354 682 CURVE SMOOTH",
"24 682 LINE",
"24 555 LINE",
"311 555 LINE SMOOTH",
"365 555 OFFCURVE",
"378 543 OFFCURVE",
"378 504 CURVE SMOOTH",
"378 482 OFFCURVE",
"374 456 OFFCURVE",
"370 431 CURVE SMOOTH",
"360 369 LINE",
"189 369 LINE",
"239 437 LINE",
"146 502 LINE",
"60 380 LINE SMOOTH",
"45 358 OFFCURVE",
"37 338 OFFCURVE",
"37 319 CURVE SMOOTH",
"37 278 OFFCURVE",
"73 252 OFFCURVE",
"128 252 CURVE SMOOTH",
"340 252 LINE",
"298 0 LINE"
);
}
);
width = 644;
}
);
leftKerningGroup = u16AD8;
unicode = 16AD8;
script = default;
category = Letter;
subCategory = Other;
},
{
glyphname = u16AD9;
lastChange = "2021-12-14 16:45:12 +0000";
layers = (
{
layerId = UUID0;
paths = (
{
closed = 1;
nodes = (
"715 439 LINE SMOOTH",
"723 450 OFFCURVE",
"726 465 OFFCURVE",
"726 474 CURVE SMOOTH",
"726 495 OFFCURVE",
"711 513 OFFCURVE",
"677 513 CURVE SMOOTH",
"29 513 LINE",
"29 444 LINE",
"637 444 LINE",
"464 219 LINE",
"522 186 LINE"
);
}
);
width = 765;
},
{
layerId = "B897597A-3AC7-4727-A83A-0CB44A91150E";
paths = (
{
closed = 1;
nodes = (
"726 404 LINE SMOOTH",
"744 429 OFFCURVE",
"751 449 OFFCURVE",
"751 468 CURVE SMOOTH",
"751 509 OFFCURVE",
"719 536 OFFCURVE",
"669 536 CURVE SMOOTH",
"24 536 LINE",
"24 409 LINE",
"577 409 LINE",
"434 221 LINE",
"540 158 LINE"
);
}
);
width = 784;
}
);
leftKerningGroup = u16AE8;
unicode = 16AD9;
script = default;
category = Letter;
subCategory = Other;
},
{
glyphname = u16ADA;
lastChange = "2021-12-14 16:45:12 +0000";
layers = (
{
layerId = UUID0;
paths = (
{
closed = 1;
nodes = (
"568 -10 OFFCURVE",
"632 62 OFFCURVE",
"632 148 CURVE SMOOTH",
"632 222 OFFCURVE",
"588 301 OFFCURVE",
"449 301 CURVE SMOOTH",
"360 301 LINE",
"360 514 LINE SMOOTH",
"360 619 OFFCURVE",
"337 674 OFFCURVE",
"246 674 CURVE SMOOTH",
"10 674 LINE",
"10 605 LINE",
"231 605 LINE SMOOTH",
"268 605 OFFCURVE",
"287 578 OFFCURVE",
"287 505 CURVE SMOOTH",
"287 301 LINE",
"87 301 LINE",
"87 233 LINE",
"287 233 LINE",
"287 167 LINE SMOOTH",
"287 54 OFFCURVE",
"342 -10 OFFCURVE",
"453 -10 CURVE SMOOTH"
);
},
{
closed = 1;
nodes = (
"395 59 OFFCURVE",
"360 89 OFFCURVE",
"360 167 CURVE SMOOTH",
"360 233 LINE",
"432 233 LINE SMOOTH",
"512 233 OFFCURVE",
"557 209 OFFCURVE",
"557 149 CURVE SMOOTH",
"557 87 OFFCURVE",
"509 59 OFFCURVE",
"454 59 CURVE SMOOTH"
);
}
);
width = 671;
},
{
layerId = "B897597A-3AC7-4727-A83A-0CB44A91150E";
paths = (
{
closed = 1;
nodes = (
"583 -10 OFFCURVE",
"668 60 OFFCURVE",
"668 178 CURVE SMOOTH",
"668 279 OFFCURVE",
"599 353 OFFCURVE",
"452 353 CURVE SMOOTH",
"403 353 LINE",
"403 494 LINE SMOOTH",
"403 623 OFFCURVE",
"368 682 OFFCURVE",
"232 682 CURVE SMOOTH",
"9 682 LINE",
"9 555 LINE",
"213 555 LINE SMOOTH",
"252 555 OFFCURVE",
"268 536 OFFCURVE",
"268 494 CURVE SMOOTH",
"268 353 LINE",
"83 353 LINE",
"83 230 LINE",
"268 230 LINE",
"268 189 LINE SMOOTH",
"268 58 OFFCURVE",
"343 -10 OFFCURVE",
"463 -10 CURVE SMOOTH"
);
},
{
closed = 1;
nodes = (
"424 117 OFFCURVE",
"403 140 OFFCURVE",
"403 192 CURVE SMOOTH",
"403 230 LINE",
"444 230 LINE SMOOTH",
"504 230 OFFCURVE",
"530 213 OFFCURVE",
"530 175 CURVE SMOOTH",
"530 139 OFFCURVE",
"505 117 OFFCURVE",
"465 117 CURVE SMOOTH"
);
}
);
width = 701;
}
);
rightKerningGroup = u16AD2;
unicode = 16ADA;
script = default;
category = Letter;
subCategory = Other;
},
{
glyphname = u16ADB;
lastChange = "2021-12-14 16:45:12 +0000";
layers = (
{
layerId = UUID0;
paths = (
{
closed = 1;
nodes = (
"731 293 LINE SMOOTH",
"739 303 OFFCURVE",
"742 318 OFFCURVE",
"742 327 CURVE SMOOTH",
"742 348 OFFCURVE",
"728 366 OFFCURVE",
"693 366 CURVE SMOOTH",
"132 366 LINE",
"305 591 LINE",
"248 625 LINE",
"55 371 LINE SMOOTH",
"47 361 OFFCURVE",
"44 346 OFFCURVE",
"44 337 CURVE SMOOTH",
"44 316 OFFCURVE",
"58 298 OFFCURVE",
"93 298 CURVE SMOOTH",
"654 298 LINE",
"481 73 LINE",
"539 39 LINE"
);
}
);
width = 786;
},
{
layerId = "B897597A-3AC7-4727-A83A-0CB44A91150E";
paths = (
{
closed = 1;
nodes = (
"755 263 LINE SMOOTH",
"773 288 OFFCURVE",
"781 309 OFFCURVE",
"781 328 CURVE SMOOTH",
"781 368 OFFCURVE",
"748 396 OFFCURVE",
"698 396 CURVE SMOOTH",
"210 396 LINE",
"353 583 LINE",
"247 646 LINE",
"62 401 LINE SMOOTH",
"43 376 OFFCURVE",
"36 355 OFFCURVE",
"36 336 CURVE SMOOTH",
"36 296 OFFCURVE",
"68 268 OFFCURVE",
"118 268 CURVE SMOOTH",
"606 268 LINE",
"463 81 LINE",
"569 18 LINE"
);
}
);
width = 816;
}
);
leftKerningGroup = u16ADB;
rightKerningGroup = u16AD2;
unicode = 16ADB;
script = default;
category = Letter;
subCategory = Other;
},
{
glyphname = u16ADC;
lastChange = "2021-12-14 16:45:12 +0000";
layers = (
{
layerId = UUID0;
paths = (
{
closed = 1;
nodes = (
"415 -10 OFFCURVE",
"566 110 OFFCURVE",
"566 332 CURVE SMOOTH",
"566 530 OFFCURVE",
"459 684 OFFCURVE",
"247 684 CURVE SMOOTH",
"163 684 OFFCURVE",
"103 662 OFFCURVE",
"49 629 CURVE",
"83 572 LINE",
"127 599 OFFCURVE",
"178 615 OFFCURVE",
"246 615 CURVE SMOOTH",
"399 615 OFFCURVE",
"490 518 OFFCURVE",
"490 332 CURVE SMOOTH",
"490 142 OFFCURVE",
"377 59 OFFCURVE",
"235 59 CURVE SMOOTH",
"176 59 OFFCURVE",
"123 74 OFFCURVE",
"82 97 CURVE",
"50 35 LINE",
"101 6 OFFCURVE",
"164 -10 OFFCURVE",
"235 -10 CURVE SMOOTH"
);
}
);
width = 629;
},
{
layerId = "B897597A-3AC7-4727-A83A-0CB44A91150E";
paths = (
{
closed = 1;
nodes = (
"451 -10 OFFCURVE",
"594 120 OFFCURVE",
"594 339 CURVE SMOOTH",
"594 546 OFFCURVE",
"470 692 OFFCURVE",
"262 692 CURVE SMOOTH",
"177 692 OFFCURVE",
"107 667 OFFCURVE",
"41 617 CURVE",
"102 508 LINE",
"147 547 OFFCURVE",
"201 565 OFFCURVE",
"260 565 CURVE SMOOTH",
"387 565 OFFCURVE",
"456 482 OFFCURVE",
"456 338 CURVE SMOOTH",
"456 185 OFFCURVE",
"369 117 OFFCURVE",
"253 117 CURVE SMOOTH",
"185 117 OFFCURVE",
"138 140 OFFCURVE",
"98 167 CURVE",
"43 53 LINE",
"97 13 OFFCURVE",
"169 -10 OFFCURVE",
"253 -10 CURVE SMOOTH"
);
}
);
width = 648;
}
);
rightKerningGroup = u16AE9;
unicode = 16ADC;
script = default;
category = Letter;
subCategory = Other;
},
{
glyphname = u16ADD;
lastChange = "2021-12-14 16:45:12 +0000";
layers = (
{
layerId = UUID0;
paths = (
{
closed = 1;
nodes = (
"395 -10 OFFCURVE",
"501 91 OFFCURVE",
"501 226 CURVE SMOOTH",
"501 499 LINE SMOOTH",
"501 614 OFFCURVE",
"478 674 OFFCURVE",
"387 674 CURVE SMOOTH",
"49 674 LINE",
"49 605 LINE",
"372 605 LINE SMOOTH",
"409 605 OFFCURVE",
"428 578 OFFCURVE",
"428 505 CURVE SMOOTH",
"428 380 LINE",
"386 419 OFFCURVE",
"331 443 OFFCURVE",
"271 443 CURVE SMOOTH",
"146 443 OFFCURVE",
"39 341 OFFCURVE",
"39 216 CURVE SMOOTH",
"39 92 OFFCURVE",
"146 -10 OFFCURVE",
"271 -10 CURVE SMOOTH"
);
},
{
closed = 1;
nodes = (
"183 59 OFFCURVE",
"115 129 OFFCURVE",
"115 216 CURVE SMOOTH",
"115 304 OFFCURVE",
"183 375 OFFCURVE",
"271 375 CURVE SMOOTH",
"358 375 OFFCURVE",
"426 304 OFFCURVE",
"426 216 CURVE SMOOTH",
"426 129 OFFCURVE",
"358 59 OFFCURVE",
"271 59 CURVE SMOOTH"
);
}
);
width = 580;
},
{
layerId = "B897597A-3AC7-4727-A83A-0CB44A91150E";
paths = (
{
closed = 1;
nodes = (
"415 -10 OFFCURVE",
"524 97 OFFCURVE",
"524 234 CURVE SMOOTH",
"524 485 LINE SMOOTH",
"524 621 OFFCURVE",
"489 682 OFFCURVE",
"353 682 CURVE SMOOTH",
"46 682 LINE",
"46 555 LINE",
"334 555 LINE SMOOTH",
"374 555 OFFCURVE",
"389 536 OFFCURVE",
"389 494 CURVE SMOOTH",
"389 422 LINE",
"359 441 OFFCURVE",
"321 453 OFFCURVE",
"277 453 CURVE SMOOTH",
"138 453 OFFCURVE",
"32 351 OFFCURVE",
"32 224 CURVE SMOOTH",
"32 95 OFFCURVE",
"135 -10 OFFCURVE",
"279 -10 CURVE SMOOTH"
);
},
{
closed = 1;
nodes = (
"217 117 OFFCURVE",
"171 163 OFFCURVE",
"171 223 CURVE SMOOTH",
"171 284 OFFCURVE",
"217 329 OFFCURVE",
"280 329 CURVE SMOOTH",
"343 329 OFFCURVE",
"388 284 OFFCURVE",
"388 223 CURVE SMOOTH",
"388 163 OFFCURVE",
"343 117 OFFCURVE",
"280 117 CURVE SMOOTH"
);
}
);
width = 589;
}
);
unicode = 16ADD;
script = default;
category = Letter;
subCategory = Other;
},
{
glyphname = u16ADE;
lastChange = "2021-12-14 16:45:12 +0000";
layers = (
{
layerId = UUID0;
paths = (
{
closed = 1;
nodes = (
"556 0 LINE",
"556 270 LINE SMOOTH",
"556 395 OFFCURVE",
"532 459 OFFCURVE",
"441 459 CURVE SMOOTH",
"153 459 LINE SMOOTH",
"113 459 OFFCURVE",
"103 476 OFFCURVE",
"103 505 CURVE SMOOTH",
"103 571 LINE SMOOTH",
"103 587 OFFCURVE",
"110 615 OFFCURVE",
"148 615 CURVE SMOOTH",
"189 615 LINE",
"189 684 LINE",
"144 684 LINE SMOOTH",
"53 684 OFFCURVE",
"29 619 OFFCURVE",
"29 572 CURVE SMOOTH",
"29 495 LINE SMOOTH",
"29 435 OFFCURVE",
"77 391 OFFCURVE",
"122 391 CURVE SMOOTH",
"426 391 LINE SMOOTH",
"463 391 OFFCURVE",
"482 363 OFFCURVE",
"482 290 CURVE SMOOTH",
"482 0 LINE"
);
}
);
width = 634;
},
{
layerId = "B897597A-3AC7-4727-A83A-0CB44A91150E";
paths = (
{
closed = 1;
nodes = (
"599 0 LINE",
"599 252 LINE SMOOTH",
"599 389 OFFCURVE",
"564 452 OFFCURVE",
"428 452 CURVE SMOOTH",
"200 452 LINE SMOOTH",
"170 452 OFFCURVE",
"159 463 OFFCURVE",
"159 489 CURVE SMOOTH",
"159 519 LINE SMOOTH",
"159 544 OFFCURVE",
"170 557 OFFCURVE",
"200 557 CURVE SMOOTH",
"265 557 LINE",
"265 684 LINE",
"174 684 LINE SMOOTH",
"86 684 OFFCURVE",
"24 633 OFFCURVE",
"24 541 CURVE SMOOTH",
"24 461 LINE SMOOTH",
"24 373 OFFCURVE",
"87 325 OFFCURVE",
"160 325 CURVE SMOOTH",
"409 325 LINE SMOOTH",
"448 325 OFFCURVE",
"464 306 OFFCURVE",
"464 263 CURVE SMOOTH",
"464 0 LINE"
);
}
);
width = 664;
}
);
leftKerningGroup = u16AE8;
rightKerningGroup = u16AD2;
unicode = 16ADE;
script = default;
category = Letter;
subCategory = Other;
},
{
glyphname = u16ADF;
lastChange = "2021-12-14 16:45:12 +0000";
layers = (
{
layerId = UUID0;
paths = (
{
closed = 1;
nodes = (
"552 0 LINE",
"552 68 LINE",
"137 68 LINE",
"343 337 LINE",
"496 337 LINE",
"496 396 LINE",
"388 396 LINE",
"543 597 LINE SMOOTH",
"554 611 OFFCURVE",
"557 624 OFFCURVE",
"557 634 CURVE SMOOTH",
"557 657 OFFCURVE",
"542 674 OFFCURVE",
"508 674 CURVE SMOOTH",
"54 674 LINE",
"54 605 LINE",
"468 605 LINE",
"307 396 LINE",
"120 396 LINE",
"120 337 LINE",
"262 337 LINE",
"63 77 LINE SMOOTH",
"52 63 OFFCURVE",
"49 50 OFFCURVE",
"49 40 CURVE SMOOTH",
"49 17 OFFCURVE",
"64 0 OFFCURVE",
"98 0 CURVE SMOOTH"
);
}
);
width = 605;
},
{
layerId = "B897597A-3AC7-4727-A83A-0CB44A91150E";
paths = (
{
closed = 1;
nodes = (
"574 0 LINE",
"574 127 LINE",
"217 127 LINE",
"354 300 LINE",
"526 300 LINE",
"526 417 LINE",
"447 417 LINE",
"547 544 LINE SMOOTH",
"569 572 OFFCURVE",
"579 593 OFFCURVE",
"579 617 CURVE SMOOTH",
"579 654 OFFCURVE",
"558 682 OFFCURVE",
"497 682 CURVE SMOOTH",
"46 682 LINE",
"46 555 LINE",
"403 555 LINE",
"294 417 LINE",
"99 417 LINE",
"99 300 LINE",
"201 300 LINE",
"73 138 LINE SMOOTH",
"51 111 OFFCURVE",
"41 89 OFFCURVE",
"41 65 CURVE SMOOTH",
"41 28 OFFCURVE",
"62 0 OFFCURVE",
"123 0 CURVE SMOOTH"
);
}
);
width = 620;
}
);
unicode = 16ADF;
script = default;
category = Letter;
subCategory = Other;
},
{
glyphname = u16AE0;
lastChange = "2021-12-14 16:45:12 +0000";
layers = (
{
layerId = UUID0;
paths = (
{
closed = 1;
nodes = (
"600 0 LINE",
"600 68 LINE",
"457 68 LINE",
"475 97 OFFCURVE",
"491 135 OFFCURVE",
"507 184 CURVE SMOOTH",
"668 674 LINE",
"590 674 LINE",
"429 185 LINE SMOOTH",
"405 113 OFFCURVE",
"382 74 OFFCURVE",
"354 74 CURVE SMOOTH",
"326 74 OFFCURVE",
"301 115 OFFCURVE",
"278 185 CURVE SMOOTH",
"117 674 LINE",
"39 674 LINE",
"200 184 LINE SMOOTH",
"216 135 OFFCURVE",
"232 97 OFFCURVE",
"250 68 CURVE",
"107 68 LINE",
"107 0 LINE"
);
}
);
width = 708;
},
{
layerId = "B897597A-3AC7-4727-A83A-0CB44A91150E";
paths = (
{
closed = 1;
nodes = (
"651 0 LINE",
"651 127 LINE",
"525 127 LINE",
"537 151 OFFCURVE",
"555 196 OFFCURVE",
"568 236 CURVE SMOOTH",
"708 682 LINE",
"567 682 LINE",
"427 233 LINE SMOOTH",
"409 174 OFFCURVE",
"393 140 OFFCURVE",
"370 140 CURVE SMOOTH",
"347 140 OFFCURVE",
"332 173 OFFCURVE",
"313 233 CURVE SMOOTH",
"174 682 LINE",
"32 682 LINE",
"173 236 LINE SMOOTH",
"186 196 OFFCURVE",
"203 151 OFFCURVE",
"216 127 CURVE",
"90 127 LINE",
"90 0 LINE"
);
}
);
width = 741;
}
);
leftKerningGroup = u16AE0;
rightKerningGroup = u16AE0;
unicode = 16AE0;
script = default;
category = Letter;
subCategory = Other;
},
{
glyphname = u16AE1;
lastChange = "2021-12-14 16:45:12 +0000";
layers = (
{
layerId = UUID0;
paths = (
{
closed = 1;
nodes = (
"315 0 LINE",
"315 68 LINE",
"280 68 LINE SMOOTH",
"193 68 OFFCURVE",
"125 109 OFFCURVE",
"125 197 CURVE SMOOTH",
"125 276 OFFCURVE",
"183 315 OFFCURVE",
"255 345 CURVE SMOOTH",
"404 407 LINE",
"554 345 LINE SMOOTH",
"625 316 OFFCURVE",
"684 276 OFFCURVE",
"684 197 CURVE SMOOTH",
"684 109 OFFCURVE",
"616 68 OFFCURVE",
"528 68 CURVE SMOOTH",
"494 68 LINE",
"494 0 LINE",
"528 0 LINE SMOOTH",
"653 0 OFFCURVE",
"760 72 OFFCURVE",
"760 197 CURVE SMOOTH",
"760 305 OFFCURVE",
"675 365 OFFCURVE",
"578 405 CURVE SMOOTH",
"477 447 LINE",
"526 487 OFFCURVE",
"547 525 OFFCURVE",
"547 571 CURVE SMOOTH",
"547 617 OFFCURVE",
"518 684 OFFCURVE",
"404 684 CURVE SMOOTH",
"291 684 OFFCURVE",
"262 617 OFFCURVE",
"262 571 CURVE SMOOTH",
"262 525 OFFCURVE",
"282 487 OFFCURVE",
"332 447 CURVE",
"231 405 LINE SMOOTH",
"134 365 OFFCURVE",
"49 305 OFFCURVE",
"49 197 CURVE SMOOTH",
"49 72 OFFCURVE",
"155 0 OFFCURVE",
"280 0 CURVE SMOOTH"
);
},
{
closed = 1;
nodes = (
"362 499 OFFCURVE",
"334 530 OFFCURVE",
"334 564 CURVE SMOOTH",
"334 602 OFFCURVE",
"369 615 OFFCURVE",
"404 615 CURVE SMOOTH",
"439 615 OFFCURVE",
"474 602 OFFCURVE",
"474 564 CURVE SMOOTH",
"474 530 OFFCURVE",
"446 499 OFFCURVE",
"404 476 CURVE"
);
}
);
width = 809;
},
{
layerId = "B897597A-3AC7-4727-A83A-0CB44A91150E";
paths = (
{
closed = 1;
nodes = (
"340 0 LINE",
"340 127 LINE",
"272 127 LINE SMOOTH",
"212 127 OFFCURVE",
"179 156 OFFCURVE",
"179 199 CURVE SMOOTH",
"179 243 OFFCURVE",
"219 272 OFFCURVE",
"303 307 CURVE SMOOTH",
"410 352 LINE",
"517 307 LINE SMOOTH",
"601 272 OFFCURVE",
"641 243 OFFCURVE",
"641 199 CURVE SMOOTH",
"641 156 OFFCURVE",
"608 127 OFFCURVE",
"548 127 CURVE SMOOTH",
"480 127 LINE",
"480 0 LINE",
"548 0 LINE SMOOTH",
"684 0 OFFCURVE",
"779 74 OFFCURVE",
"779 190 CURVE SMOOTH",
"779 284 OFFCURVE",
"713 349 OFFCURVE",
"583 404 CURVE SMOOTH",
"529 427 LINE",
"565 461 OFFCURVE",
"590 503 OFFCURVE",
"590 552 CURVE SMOOTH",
"590 633 OFFCURVE",
"522 692 OFFCURVE",
"410 692 CURVE SMOOTH",
"298 692 OFFCURVE",
"230 633 OFFCURVE",
"230 552 CURVE SMOOTH",
"230 503 OFFCURVE",
"254 461 OFFCURVE",
"291 427 CURVE",
"237 404 LINE SMOOTH",
"107 349 OFFCURVE",
"41 284 OFFCURVE",
"41 190 CURVE SMOOTH",
"41 74 OFFCURVE",
"135 0 OFFCURVE",
"272 0 CURVE SMOOTH"
);
},
{
closed = 1;
nodes = (
"374 488 OFFCURVE",
"355 511 OFFCURVE",
"355 534 CURVE SMOOTH",
"355 559 OFFCURVE",
"376 573 OFFCURVE",
"410 573 CURVE SMOOTH",
"443 573 OFFCURVE",
"464 559 OFFCURVE",
"464 534 CURVE SMOOTH",
"464 511 OFFCURVE",
"445 488 OFFCURVE",
"410 472 CURVE"
);
}
);
width = 820;
}
);
leftKerningGroup = u16AE1;
rightKerningGroup = u16AD2;
unicode = 16AE1;
script = default;
category = Letter;
subCategory = Other;
},
{
glyphname = u16AE2;
lastChange = "2021-12-14 16:45:12 +0000";
layers = (
{
layerId = UUID0;
paths = (
{
closed = 1;
nodes = (
"827 132 LINE",
"827 200 LINE",
"351 200 LINE",
"581 432 LINE SMOOTH",
"595 446 OFFCURVE",
"599 457 OFFCURVE",
"599 474 CURVE SMOOTH",
"599 495 OFFCURVE",
"584 513 OFFCURVE",
"550 513 CURVE SMOOTH",
"29 513 LINE",
"29 444 LINE",
"505 444 LINE",
"276 213 LINE SMOOTH",
"262 199 OFFCURVE",
"257 188 OFFCURVE",
"257 171 CURVE SMOOTH",
"257 150 OFFCURVE",
"271 132 OFFCURVE",
"306 132 CURVE SMOOTH"
);
}
);
width = 856;
},
{
layerId = "B897597A-3AC7-4727-A83A-0CB44A91150E";
paths = (
{
closed = 1;
nodes = (
"853 109 LINE",
"853 236 LINE",
"436 236 LINE",
"601 402 LINE SMOOTH",
"625 426 OFFCURVE",
"634 448 OFFCURVE",
"634 468 CURVE SMOOTH",
"634 509 OFFCURVE",
"601 536 OFFCURVE",
"552 536 CURVE SMOOTH",
"24 536 LINE",
"24 409 LINE",
"443 409 LINE",
"278 243 LINE SMOOTH",
"254 219 OFFCURVE",
"245 197 OFFCURVE",
"245 177 CURVE SMOOTH",
"245 136 OFFCURVE",
"276 109 OFFCURVE",
"327 109 CURVE SMOOTH"
);
}
);
width = 877;
}
);
leftKerningGroup = u16AE8;
rightKerningGroup = u16AD2;
unicode = 16AE2;
script = default;
category = Letter;
subCategory = Other;
},
{
glyphname = u16AE3;
lastChange = "2021-12-14 16:45:12 +0000";
layers = (
{
layerId = UUID0;
paths = (
{
closed = 1;
nodes = (
"537 0 LINE",
"537 68 LINE",
"342 68 LINE",
"342 494 LINE SMOOTH",
"342 613 OFFCURVE",
"318 674 OFFCURVE",
"227 674 CURVE SMOOTH",
"59 674 LINE",
"59 605 LINE",
"212 605 LINE SMOOTH",
"249 605 OFFCURVE",
"269 578 OFFCURVE",
"269 505 CURVE SMOOTH",
"269 68 LINE",
"59 68 LINE",
"59 0 LINE"
);
}
);
width = 596;
},
{
layerId = "B897597A-3AC7-4727-A83A-0CB44A91150E";
paths = (
{
closed = 1;
nodes = (
"555 0 LINE",
"555 127 LINE",
"377 127 LINE",
"377 484 LINE SMOOTH",
"377 620 OFFCURVE",
"343 682 OFFCURVE",
"207 682 CURVE SMOOTH",
"49 682 LINE",
"49 555 LINE",
"187 555 LINE SMOOTH",
"227 555 OFFCURVE",
"243 536 OFFCURVE",
"243 494 CURVE SMOOTH",
"243 127 LINE",
"49 127 LINE",
"49 0 LINE"
);
}
);
width = 604;
}
);
rightKerningGroup = u16AE3;
rightMetricsKey = "=|";
unicode = 16AE3;
script = default;
category = Letter;
subCategory = Other;
},
{
glyphname = u16AE4;
lastChange = "2021-12-14 16:45:12 +0000";
layers = (
{
layerId = UUID0;
paths = (
{
closed = 1;
nodes = (
"522 0 LINE",
"522 68 LINE",
"327 68 LINE",
"327 337 LINE",
"493 337 LINE",
"493 396 LINE",
"327 396 LINE",
"327 605 LINE",
"522 605 LINE",
"522 674 LINE",
"59 674 LINE",
"59 605 LINE",
"254 605 LINE",
"254 396 LINE",
"88 396 LINE",
"88 337 LINE",
"254 337 LINE",
"254 68 LINE",
"59 68 LINE",
"59 0 LINE"
);
}
);
width = 581;
},
{
layerId = "B897597A-3AC7-4727-A83A-0CB44A91150E";
paths = (
{
closed = 1;
nodes = (
"549 0 LINE",
"549 127 LINE",
"366 127 LINE",
"366 300 LINE",
"523 300 LINE",
"523 417 LINE",
"366 417 LINE",
"366 555 LINE",
"549 555 LINE",
"549 682 LINE",
"49 682 LINE",
"49 555 LINE",
"232 555 LINE",
"232 417 LINE",
"76 417 LINE",
"76 300 LINE",
"232 300 LINE",
"232 127 LINE",
"49 127 LINE",
"49 0 LINE"
);
}
);
width = 598;
}
);
rightMetricsKey = "=|";
unicode = 16AE4;
script = default;
category = Letter;
subCategory = Other;
},
{
glyphname = u16AE5;
lastChange = "2021-12-14 16:45:12 +0000";
layers = (
{
layerId = UUID0;
paths = (
{
closed = 1;
nodes = (
"385 0 LINE",
"454 432 LINE SMOOTH",
"460 471 OFFCURVE",
"468 536 OFFCURVE",
"468 570 CURVE SMOOTH",
"468 642 OFFCURVE",
"435 674 OFFCURVE",
"347 674 CURVE SMOOTH",
"10 674 LINE",
"10 605 LINE",
"338 605 LINE SMOOTH",
"385 605 OFFCURVE",
"393 582 OFFCURVE",
"393 549 CURVE SMOOTH",
"393 518 OFFCURVE",
"388 485 OFFCURVE",
"381 442 CURVE SMOOTH",
"312 0 LINE"
);
}
);
width = 532;
},
{
layerId = "B897597A-3AC7-4727-A83A-0CB44A91150E";
paths = (
{
closed = 1;
nodes = (
"419 0 LINE",
"484 384 LINE SMOOTH",
"495 449 OFFCURVE",
"502 508 OFFCURVE",
"502 545 CURVE SMOOTH",
"502 637 OFFCURVE",
"456 682 OFFCURVE",
"339 682 CURVE SMOOTH",
"9 682 LINE",
"9 555 LINE",
"296 555 LINE SMOOTH",
"351 555 OFFCURVE",
"363 543 OFFCURVE",
"363 504 CURVE SMOOTH",
"363 479 OFFCURVE",
"359 451 OFFCURVE",
"350 398 CURVE SMOOTH",
"283 0 LINE"
);
}
);
width = 556;
}
);
leftKerningGroup = u16AE5;
unicode = 16AE5;
script = default;
category = Letter;
subCategory = Other;
},
{
glyphname = u16AE6;
lastChange = "2021-12-14 16:45:12 +0000";
layers = (
{
layerId = UUID0;
paths = (
{
closed = 1;
nodes = (
"323 -10 OFFCURVE",
"347 -7 OFFCURVE",
"368 -1 CURVE SMOOTH",
"543 47 LINE SMOOTH",
"657 78 OFFCURVE",
"670 151 OFFCURVE",
"670 194 CURVE SMOOTH",
"670 263 OFFCURVE",
"635 319 OFFCURVE",
"547 328 CURVE",
"537 257 LINE",
"572 254 OFFCURVE",
"597 236 OFFCURVE",
"597 192 CURVE SMOOTH",
"597 155 OFFCURVE",
"581 132 OFFCURVE",
"506 109 CURVE SMOOTH",
"383 72 LINE SMOOTH",
"356 64 OFFCURVE",
"331 59 OFFCURVE",
"309 59 CURVE SMOOTH",
"263 59 OFFCURVE",
"229 83 OFFCURVE",
"229 161 CURVE SMOOTH",
"229 431 LINE",
"250 431 LINE SMOOTH",
"384 431 OFFCURVE",
"423 497 OFFCURVE",
"423 560 CURVE SMOOTH",
"423 627 OFFCURVE",
"381 684 OFFCURVE",
"295 684 CURVE SMOOTH",
"190 684 OFFCURVE",
"156 607 OFFCURVE",
"156 516 CURVE SMOOTH",
"156 500 LINE",
"10 500 LINE",
"10 431 LINE",
"156 431 LINE",
"156 162 LINE SMOOTH",
"156 30 OFFCURVE",
"221 -10 OFFCURVE",
"292 -10 CURVE SMOOTH"
);
},
{
closed = 1;
nodes = (
"229 509 LINE SMOOTH",
"229 568 OFFCURVE",
"241 616 OFFCURVE",
"293 616 CURVE SMOOTH",
"333 616 OFFCURVE",
"350 588 OFFCURVE",
"350 559 CURVE SMOOTH",
"350 520 OFFCURVE",
"321 500 OFFCURVE",
"259 500 CURVE SMOOTH",
"229 500 LINE"
);
}
);
width = 709;
},
{
layerId = "B897597A-3AC7-4727-A83A-0CB44A91150E";
paths = (
{
closed = 1;
nodes = (
"330 -10 OFFCURVE",
"368 -5 OFFCURVE",
"400 4 CURVE SMOOTH",
"561 49 LINE SMOOTH",
"681 83 OFFCURVE",
"709 152 OFFCURVE",
"709 221 CURVE SMOOTH",
"709 317 OFFCURVE",
"648 372 OFFCURVE",
"533 382 CURVE",
"511 259 LINE",
"549 256 OFFCURVE",
"575 246 OFFCURVE",
"575 216 CURVE SMOOTH",
"575 193 OFFCURVE",
"559 177 OFFCURVE",
"504 162 CURVE SMOOTH",
"385 129 LINE SMOOTH",
"361 122 OFFCURVE",
"337 116 OFFCURVE",
"316 116 CURVE SMOOTH",
"286 116 OFFCURVE",
"268 128 OFFCURVE",
"268 182 CURVE SMOOTH",
"268 350 LINE",
"275 350 LINE SMOOTH",
"412 350 OFFCURVE",
"487 431 OFFCURVE",
"487 533 CURVE SMOOTH",
"487 627 OFFCURVE",
"420 692 OFFCURVE",
"311 692 CURVE SMOOTH",
"197 692 OFFCURVE",
"134 610 OFFCURVE",
"134 497 CURVE SMOOTH",
"134 469 LINE",
"9 469 LINE",
"9 350 LINE",
"134 350 LINE",
"134 182 LINE SMOOTH",
"134 51 OFFCURVE",
"197 -10 OFFCURVE",
"299 -10 CURVE SMOOTH"
);
},
{
closed = 1;
nodes = (
"268 493 LINE SMOOTH",
"268 541 OFFCURVE",
"284 568 OFFCURVE",
"318 568 CURVE SMOOTH",
"347 568 OFFCURVE",
"363 550 OFFCURVE",
"363 523 CURVE SMOOTH",
"363 490 OFFCURVE",
"339 469 OFFCURVE",
"289 469 CURVE SMOOTH",
"268 469 LINE"
);
}
);
width = 742;
}
);
leftKerningGroup = u16AE8;
leftMetricsKey = u16AE5;
rightKerningGroup = u16AD2;
unicode = 16AE6;
script = default;
category = Letter;
subCategory = Other;
},
{
glyphname = u16AE7;
lastChange = "2021-12-14 16:45:12 +0000";
layers = (
{
anchors = (
{
name = center;
position = "{443, 263}";
}
);
layerId = UUID0;
paths = (
{
closed = 1;
nodes = (
"288 0 LINE",
"288 333 LINE SMOOTH",
"288 447 OFFCURVE",
"333 522 OFFCURVE",
"446 522 CURVE SMOOTH",
"565 522 OFFCURVE",
"599 435 OFFCURVE",
"599 324 CURVE SMOOTH",
"599 0 LINE",
"672 0 LINE",
"672 339 LINE SMOOTH",
"672 487 OFFCURVE",
"605 591 OFFCURVE",
"444 591 CURVE SMOOTH",
"376 591 OFFCURVE",
"324 564 OFFCURVE",
"287 523 CURVE",
"282 623 OFFCURVE",
"254 674 OFFCURVE",
"173 674 CURVE SMOOTH",
"10 674 LINE",
"10 605 LINE",
"159 605 LINE SMOOTH",
"195 605 OFFCURVE",
"215 578 OFFCURVE",
"215 505 CURVE SMOOTH",
"215 0 LINE"
);
}
);
width = 750;
},
{
anchors = (
{
name = center;
position = "{482, 236}";
}
);
layerId = "B897597A-3AC7-4727-A83A-0CB44A91150E";
paths = (
{
closed = 1;
nodes = (
"355 0 LINE",
"355 324 LINE SMOOTH",
"355 413 OFFCURVE",
"397 464 OFFCURVE",
"484 464 CURVE SMOOTH",
"572 464 OFFCURVE",
"610 410 OFFCURVE",
"610 322 CURVE SMOOTH",
"610 0 LINE",
"744 0 LINE",
"744 344 LINE SMOOTH",
"744 498 OFFCURVE",
"659 591 OFFCURVE",
"505 591 CURVE SMOOTH",
"443 591 OFFCURVE",
"390 575 OFFCURVE",
"348 540 CURVE",
"340 639 OFFCURVE",
"306 682 OFFCURVE",
"184 682 CURVE SMOOTH",
"40 682 LINE",
"40 555 LINE",
"166 555 LINE SMOOTH",
"205 555 OFFCURVE",
"221 536 OFFCURVE",
"221 494 CURVE SMOOTH",
"221 0 LINE"
);
}
);
width = 809;
}
);
leftKerningGroup = u16AE7;
rightKerningGroup = u16AD3;
unicode = 16AE7;
script = default;
category = Letter;
subCategory = Other;
},
{
glyphname = u16AE8;
lastChange = "2021-12-14 16:45:12 +0000";
layers = (
{
anchors = (
{
name = center;
position = "{397, 229}";
}
);
layerId = UUID0;
paths = (
{
closed = 1;
nodes = (
"529 -10 OFFCURVE",
"640 79 OFFCURVE",
"640 224 CURVE SMOOTH",
"640 358 OFFCURVE",
"545 444 OFFCURVE",
"428 457 CURVE",
"409 387 LINE",
"495 383 OFFCURVE",
"564 326 OFFCURVE",
"564 224 CURVE SMOOTH",
"564 118 OFFCURVE",
"490 58 OFFCURVE",
"398 58 CURVE SMOOTH",
"314 58 OFFCURVE",
"229 103 OFFCURVE",
"229 264 CURVE SMOOTH",
"229 456 LINE",
"269 456 LINE SMOOTH",
"365 456 OFFCURVE",
"414 511 OFFCURVE",
"414 580 CURVE SMOOTH",
"414 629 OFFCURVE",
"375 684 OFFCURVE",
"293 684 CURVE SMOOTH",
"202 684 OFFCURVE",
"157 614 OFFCURVE",
"156 524 CURVE",
"10 524 LINE",
"10 456 LINE",
"156 456 LINE",
"156 264 LINE SMOOTH",
"156 84 OFFCURVE",
"250 -10 OFFCURVE",
"398 -10 CURVE SMOOTH"
);
},
{
closed = 1;
nodes = (
"229 587 OFFCURVE",
"256 615 OFFCURVE",
"292 615 CURVE SMOOTH",
"322 615 OFFCURVE",
"340 597 OFFCURVE",
"340 577 CURVE SMOOTH",
"340 549 OFFCURVE",
"324 524 OFFCURVE",
"268 524 CURVE SMOOTH",
"229 524 LINE"
);
}
);
width = 679;
},
{
anchors = (
{
name = center;
position = "{404, 240}";
}
);
layerId = "B897597A-3AC7-4727-A83A-0CB44A91150E";
paths = (
{
closed = 1;
nodes = (
"567 -10 OFFCURVE",
"677 90 OFFCURVE",
"677 235 CURVE SMOOTH",
"677 338 OFFCURVE",
"621 417 OFFCURVE",
"520 446 CURVE",
"461 334 LINE",
"513 320 OFFCURVE",
"539 283 OFFCURVE",
"539 235 CURVE SMOOTH",
"539 162 OFFCURVE",
"483 117 OFFCURVE",
"403 117 CURVE SMOOTH",
"322 117 OFFCURVE",
"268 161 OFFCURVE",
"268 279 CURVE SMOOTH",
"268 386 LINE",
"303 386 LINE SMOOTH",
"416 386 OFFCURVE",
"488 455 OFFCURVE",
"488 548 CURVE SMOOTH",
"488 638 OFFCURVE",
"416 692 OFFCURVE",
"319 692 CURVE SMOOTH",
"215 692 OFFCURVE",
"141 629 OFFCURVE",
"134 504 CURVE",
"9 504 LINE",
"9 386 LINE",
"134 386 LINE",
"134 275 LINE SMOOTH",
"134 86 OFFCURVE",
"234 -10 OFFCURVE",
"400 -10 CURVE SMOOTH"
);
},
{
closed = 1;
nodes = (
"268 556 OFFCURVE",
"292 576 OFFCURVE",
"323 576 CURVE SMOOTH",
"348 576 OFFCURVE",
"363 563 OFFCURVE",
"363 544 CURVE SMOOTH",
"363 524 OFFCURVE",
"348 504 OFFCURVE",
"301 504 CURVE SMOOTH",
"268 504 LINE"
);
}
);
width = 709;
}
);
leftKerningGroup = u16AE8;
rightKerningGroup = u16AD2;
unicode = 16AE8;
script = default;
category = Letter;
subCategory = Other;
},
{
glyphname = u16AE9;
lastChange = "2021-12-14 16:45:12 +0000";
layers = (
{
anchors = (
{
name = center;
position = "{390, 332}";
}
);
layerId = UUID0;
paths = (
{
closed = 1;
nodes = (
"550 -10 OFFCURVE",
"711 110 OFFCURVE",
"711 332 CURVE SMOOTH",
"711 530 OFFCURVE",
"579 684 OFFCURVE",
"390 684 CURVE SMOOTH",
"181 684 OFFCURVE",
"63 515 OFFCURVE",
"63 332 CURVE SMOOTH",
"63 130 OFFCURVE",
"197 -10 OFFCURVE",
"390 -10 CURVE SMOOTH"
);
},
{
closed = 1;
nodes = (
"229 59 OFFCURVE",
"139 179 OFFCURVE",
"139 332 CURVE SMOOTH",
"139 491 OFFCURVE",
"227 615 OFFCURVE",
"387 615 CURVE SMOOTH",
"549 615 OFFCURVE",
"635 493 OFFCURVE",
"635 332 CURVE SMOOTH",
"635 167 OFFCURVE",
"532 59 OFFCURVE",
"390 59 CURVE SMOOTH"
);
}
);
width = 774;
},
{
anchors = (
{
name = center;
position = "{397, 340}";
}
);
layerId = "B897597A-3AC7-4727-A83A-0CB44A91150E";
paths = (
{
closed = 1;
nodes = (
"594 -10 OFFCURVE",
"740 131 OFFCURVE",
"740 340 CURVE SMOOTH",
"740 541 OFFCURVE",
"599 692 OFFCURVE",
"397 692 CURVE SMOOTH",
"192 692 OFFCURVE",
"54 538 OFFCURVE",
"54 340 CURVE SMOOTH",
"54 135 OFFCURVE",
"195 -10 OFFCURVE",
"397 -10 CURVE SMOOTH"
);
},
{
closed = 1;
nodes = (
"264 117 OFFCURVE",
"192 209 OFFCURVE",
"192 340 CURVE SMOOTH",
"192 471 OFFCURVE",
"264 565 OFFCURVE",
"397 565 CURVE SMOOTH",
"530 565 OFFCURVE",
"601 471 OFFCURVE",
"601 340 CURVE SMOOTH",
"601 207 OFFCURVE",
"527 117 OFFCURVE",
"397 117 CURVE SMOOTH"
);
}
);
width = 794;
}
);
leftKerningGroup = u16AE9;
rightKerningGroup = u16AE9;
rightMetricsKey = "=|";
unicode = 16AE9;
script = default;
category = Letter;
subCategory = Other;
},
{
glyphname = u16AEA;
lastChange = "2021-12-14 16:45:12 +0000";
layers = (
{
anchors = (
{
name = center;
position = "{705, 341}";
}
);
layerId = UUID0;
paths = (
{
closed = 1;
nodes = (
"422 0 LINE",
"422 68 LINE",
"363 68 LINE SMOOTH",
"246 68 OFFCURVE",
"139 147 OFFCURVE",
"139 347 CURVE SMOOTH",
"139 542 OFFCURVE",
"231 615 OFFCURVE",
"324 615 CURVE SMOOTH",
"404 615 OFFCURVE",
"469 574 OFFCURVE",
"469 441 CURVE SMOOTH",
"469 282 LINE",
"542 282 LINE",
"542 441 LINE SMOOTH",
"542 574 OFFCURVE",
"607 615 OFFCURVE",
"687 615 CURVE SMOOTH",
"779 615 OFFCURVE",
"872 542 OFFCURVE",
"872 347 CURVE SMOOTH",
"872 147 OFFCURVE",
"765 68 OFFCURVE",
"647 68 CURVE SMOOTH",
"588 68 LINE",
"588 0 LINE",
"655 0 LINE SMOOTH",
"810 0 OFFCURVE",
"947 119 OFFCURVE",
"947 351 CURVE SMOOTH",
"947 564 OFFCURVE",
"828 684 OFFCURVE",
"687 684 CURVE SMOOTH",
"606 684 OFFCURVE",
"542 646 OFFCURVE",
"505 584 CURVE",
"468 646 OFFCURVE",
"404 684 OFFCURVE",
"324 684 CURVE SMOOTH",
"183 684 OFFCURVE",
"63 564 OFFCURVE",
"63 351 CURVE SMOOTH",
"63 119 OFFCURVE",
"201 0 OFFCURVE",
"355 0 CURVE SMOOTH"
);
}
);
width = 1011;
},
{
anchors = (
{
name = center;
position = "{702, 341}";
}
);
layerId = "B897597A-3AC7-4727-A83A-0CB44A91150E";
paths = (
{
closed = 1;
nodes = (
"449 0 LINE",
"449 127 LINE",
"369 127 LINE SMOOTH",
"262 127 OFFCURVE",
"192 194 OFFCURVE",
"192 350 CURVE SMOOTH",
"192 484 OFFCURVE",
"244 565 OFFCURVE",
"335 565 CURVE SMOOTH",
"404 565 OFFCURVE",
"445 526 OFFCURVE",
"445 433 CURVE SMOOTH",
"445 273 LINE",
"576 273 LINE",
"576 433 LINE SMOOTH",
"576 526 OFFCURVE",
"618 565 OFFCURVE",
"686 565 CURVE SMOOTH",
"777 565 OFFCURVE",
"829 484 OFFCURVE",
"829 350 CURVE SMOOTH",
"829 194 OFFCURVE",
"759 127 OFFCURVE",
"653 127 CURVE SMOOTH",
"572 127 LINE",
"572 0 LINE",
"664 0 LINE SMOOTH",
"842 0 OFFCURVE",
"967 143 OFFCURVE",
"967 355 CURVE SMOOTH",
"967 559 OFFCURVE",
"851 692 OFFCURVE",
"686 692 CURVE SMOOTH",
"606 692 OFFCURVE",
"549 661 OFFCURVE",
"511 614 CURVE",
"473 661 OFFCURVE",
"415 692 OFFCURVE",
"335 692 CURVE SMOOTH",
"171 692 OFFCURVE",
"54 559 OFFCURVE",
"54 355 CURVE SMOOTH",
"54 143 OFFCURVE",
"180 0 OFFCURVE",
"357 0 CURVE SMOOTH"
);
}
);
width = 1022;
}
);
leftKerningGroup = u16AE9;
rightKerningGroup = u16AE9;
unicode = 16AEA;
script = default;
category = Letter;
subCategory = Other;
},
{
glyphname = u16AEB;
lastChange = "2021-12-14 16:45:12 +0000";
layers = (
{
anchors = (
{
name = center;
position = "{319, 195}";
}
);
layerId = UUID0;
paths = (
{
closed = 1;
nodes = (
"463 -10 OFFCURVE",
"517 48 OFFCURVE",
"572 182 CURVE SMOOTH",
"600 250 LINE SMOOTH",
"611 278 OFFCURVE",
"619 296 OFFCURVE",
"660 296 CURVE SMOOTH",
"691 296 LINE",
"691 364 LINE",
"646 364 LINE SMOOTH",
"573 364 OFFCURVE",
"553 315 OFFCURVE",
"525 246 CURVE SMOOTH",
"499 182 LINE SMOOTH",
"476 126 OFFCURVE",
"439 59 OFFCURVE",
"312 59 CURVE SMOOTH",
"196 59 OFFCURVE",
"139 104 OFFCURVE",
"139 184 CURVE SMOOTH",
"139 276 OFFCURVE",
"210 327 OFFCURVE",
"339 327 CURVE SMOOTH",
"373 327 LINE",
"373 396 LINE",
"339 396 LINE SMOOTH",
"210 396 OFFCURVE",
"139 422 OFFCURVE",
"139 500 CURVE SMOOTH",
"139 574 OFFCURVE",
"200 615 OFFCURVE",
"288 615 CURVE SMOOTH",
"373 615 OFFCURVE",
"449 571 OFFCURVE",
"449 510 CURVE",
"522 510 LINE",
"522 646 OFFCURVE",
"386 684 OFFCURVE",
"287 684 CURVE SMOOTH",
"184 684 OFFCURVE",
"63 626 OFFCURVE",
"63 503 CURVE SMOOTH",
"63 442 OFFCURVE",
"92 385 OFFCURVE",
"184 354 CURVE",
"99 321 OFFCURVE",
"63 264 OFFCURVE",
"63 187 CURVE SMOOTH",
"63 64 OFFCURVE",
"161 -10 OFFCURVE",
"311 -10 CURVE SMOOTH"
);
}
);
width = 730;
},
{
anchors = (
{
name = center;
position = "{329, 205}";
}
);
layerId = "B897597A-3AC7-4727-A83A-0CB44A91150E";
paths = (
{
closed = 1;
nodes = (
"461 -10 OFFCURVE",
"541 38 OFFCURVE",
"598 158 CURVE SMOOTH",
"617 198 LINE SMOOTH",
"631 227 OFFCURVE",
"639 237 OFFCURVE",
"674 237 CURVE SMOOTH",
"722 237 LINE",
"722 364 LINE",
"653 364 LINE SMOOTH",
"575 364 OFFCURVE",
"553 342 OFFCURVE",
"512 267 CURVE SMOOTH",
"476 202 LINE SMOOTH",
"444 144 OFFCURVE",
"417 109 OFFCURVE",
"325 109 CURVE SMOOTH",
"238 109 OFFCURVE",
"192 138 OFFCURVE",
"192 205 CURVE SMOOTH",
"192 273 OFFCURVE",
"238 308 OFFCURVE",
"342 308 CURVE SMOOTH",
"407 308 LINE",
"407 417 LINE",
"352 417 LINE SMOOTH",
"235 417 OFFCURVE",
"196 440 OFFCURVE",
"196 492 CURVE SMOOTH",
"196 547 OFFCURVE",
"239 573 OFFCURVE",
"314 573 CURVE SMOOTH",
"393 573 OFFCURVE",
"433 544 OFFCURVE",
"441 485 CURVE",
"570 485 LINE",
"561 630 OFFCURVE",
"466 692 OFFCURVE",
"318 692 CURVE SMOOTH",
"160 692 OFFCURVE",
"57 619 OFFCURVE",
"57 501 CURVE SMOOTH",
"57 442 OFFCURVE",
"86 389 OFFCURVE",
"163 353 CURVE",
"87 317 OFFCURVE",
"54 262 OFFCURVE",
"54 190 CURVE SMOOTH",
"54 59 OFFCURVE",
"154 -10 OFFCURVE",
"320 -10 CURVE SMOOTH"
);
}
);
width = 755;
}
);
rightKerningGroup = u16AD2;
unicode = 16AEB;
script = default;
category = Letter;
subCategory = Other;
},
{
glyphname = u16AEC;
lastChange = "2021-12-14 16:45:12 +0000";
layers = (
{
anchors = (
{
name = center;
position = "{597, 337}";
}
);
layerId = UUID0;
paths = (
{
closed = 1;
nodes = (
"691 61 LINE",
"171 336 LINE",
"691 613 LINE",
"691 693 LINE",
"78 370 LINE SMOOTH",
"43 352 OFFCURVE",
"29 344 OFFCURVE",
"29 337 CURVE SMOOTH",
"29 330 OFFCURVE",
"43 322 OFFCURVE",
"78 304 CURVE SMOOTH",
"691 -20 LINE"
);
}
);
width = 740;
},
{
anchors = (
{
name = center;
position = "{630, 339}";
}
);
layerId = "B897597A-3AC7-4727-A83A-0CB44A91150E";
paths = (
{
closed = 1;
nodes = (
"707 123 LINE",
"267 340 LINE",
"707 558 LINE",
"707 701 LINE",
"91 400 LINE SMOOTH",
"48 379 OFFCURVE",
"24 363 OFFCURVE",
"24 341 CURVE SMOOTH",
"24 319 OFFCURVE",
"48 303 OFFCURVE",
"91 282 CURVE SMOOTH",
"707 -20 LINE"
);
}
);
width = 748;
}
);
leftKerningGroup = u16AEC;
unicode = 16AEC;
script = default;
category = Letter;
subCategory = Other;
},
{
glyphname = u16AED;
lastChange = "2021-12-14 16:45:12 +0000";
layers = (
{
anchors = (
{
name = center;
position = "{306, 220}";
}
);
layerId = UUID0;
paths = (
{
closed = 1;
nodes = (
"431 -10 OFFCURVE",
"540 79 OFFCURVE",
"540 224 CURVE SMOOTH",
"540 381 LINE",
"726 381 LINE",
"726 449 LINE",
"540 449 LINE",
"540 497 LINE",
"672 497 LINE",
"672 556 LINE",
"538 556 LINE",
"531 634 OFFCURVE",
"503 674 OFFCURVE",
"425 674 CURVE SMOOTH",
"115 674 LINE",
"115 605 LINE",
"411 605 LINE SMOOTH",
"439 605 OFFCURVE",
"458 595 OFFCURVE",
"464 556 CURVE",
"311 556 LINE",
"311 497 LINE",
"467 497 LINE",
"467 449 LINE",
"301 449 LINE SMOOTH",
"170 449 OFFCURVE",
"59 369 OFFCURVE",
"59 224 CURVE SMOOTH",
"59 79 OFFCURVE",
"170 -10 OFFCURVE",
"301 -10 CURVE SMOOTH"
);
},
{
closed = 1;
nodes = (
"209 59 OFFCURVE",
"134 118 OFFCURVE",
"134 224 CURVE SMOOTH",
"134 330 OFFCURVE",
"209 381 OFFCURVE",
"301 381 CURVE SMOOTH",
"467 381 LINE",
"467 224 LINE SMOOTH",
"467 118 OFFCURVE",
"392 59 OFFCURVE",
"301 59 CURVE SMOOTH"
);
}
);
width = 755;
},
{
anchors = (
{
name = center;
position = "{309, 216}";
}
);
layerId = "B897597A-3AC7-4727-A83A-0CB44A91150E";
paths = (
{
closed = 1;
nodes = (
"450 -10 OFFCURVE",
"558 87 OFFCURVE",
"558 239 CURVE SMOOTH",
"558 323 LINE",
"726 323 LINE",
"726 429 LINE",
"558 429 LINE",
"558 467 LINE",
"680 467 LINE",
"680 527 LINE",
"557 527 LINE",
"551 634 OFFCURVE",
"514 682 OFFCURVE",
"394 682 CURVE SMOOTH",
"111 682 LINE",
"111 563 LINE",
"383 563 LINE SMOOTH",
"412 563 OFFCURVE",
"426 552 OFFCURVE",
"429 527 CURVE",
"295 527 LINE",
"295 467 LINE",
"430 467 LINE",
"430 429 LINE",
"304 429 LINE SMOOTH",
"151 429 OFFCURVE",
"49 349 OFFCURVE",
"49 216 CURVE SMOOTH",
"49 83 OFFCURVE",
"152 -10 OFFCURVE",
"299 -10 CURVE SMOOTH"
);
},
{
closed = 1;
nodes = (
"221 109 OFFCURVE",
"183 152 OFFCURVE",
"183 216 CURVE SMOOTH",
"183 287 OFFCURVE",
"230 323 OFFCURVE",
"304 323 CURVE SMOOTH",
"430 323 LINE",
"430 239 LINE SMOOTH",
"430 153 OFFCURVE",
"379 109 OFFCURVE",
"300 109 CURVE SMOOTH"
);
}
);
width = 750;
}
);
rightKerningGroup = u16AD3;
unicode = 16AED;
script = default;
category = Letter;
subCategory = Other;
},
{
glyphname = u16AF0;
lastChange = "2021-12-14 16:45:12 +0000";
layers = (
{
anchors = (
{
name = _center;
position = "{102, 337}";
}
);
layerId = UUID0;
paths = (
{
closed = 1;
nodes = (
"130 285 OFFCURVE",
"154 308 OFFCURVE",
"154 337 CURVE SMOOTH",
"154 365 OFFCURVE",
"130 389 OFFCURVE",
"102 389 CURVE SMOOTH",
"74 389 OFFCURVE",
"50 365 OFFCURVE",
"50 337 CURVE SMOOTH",
"50 308 OFFCURVE",
"74 285 OFFCURVE",
"102 285 CURVE SMOOTH"
);
}
);
width = 204;
},
{
anchors = (
{
name = _center;
position = "{110, 337}";
}
);
layerId = "B897597A-3AC7-4727-A83A-0CB44A91150E";
paths = (
{
closed = 1;
nodes = (
"142 277 OFFCURVE",
"170 303 OFFCURVE",
"170 337 CURVE SMOOTH",
"170 369 OFFCURVE",
"142 397 OFFCURVE",
"110 397 CURVE SMOOTH",
"78 397 OFFCURVE",
"50 369 OFFCURVE",
"50 337 CURVE SMOOTH",
"50 303 OFFCURVE",
"78 277 OFFCURVE",
"110 277 CURVE SMOOTH"
);
}
);
width = 220;
}
);
unicode = 16AF0;
script = default;
category = Mark;
subCategory = Nonspacing;
},
{
glyphname = u16AF1;
lastChange = "2021-12-14 16:45:12 +0000";
layers = (
{
anchors = (
{
name = _center;
position = "{92, 337}";
},
{
name = _center.alt;
position = "{91, 337}";
}
);
layerId = UUID0;
paths = (
{
closed = 1;
nodes = (
"138 192 OFFCURVE",
"196 255 OFFCURVE",
"196 337 CURVE SMOOTH",
"196 419 OFFCURVE",
"139 482 OFFCURVE",
"50 490 CURVE",
"50 436 LINE",
"109 428 OFFCURVE",
"142 389 OFFCURVE",
"142 337 CURVE SMOOTH",
"142 285 OFFCURVE",
"109 246 OFFCURVE",
"50 238 CURVE",
"50 184 LINE"
);
}
);
width = 246;
},
{
anchors = (
{
name = _center;
position = "{85, 337}";
},
{
name = _center.alt;
position = "{84, 337}";
}
);
layerId = "B897597A-3AC7-4727-A83A-0CB44A91150E";
paths = (
{
closed = 1;
nodes = (
"145 185 OFFCURVE",
"204 249 OFFCURVE",
"204 337 CURVE SMOOTH",
"204 425 OFFCURVE",
"146 489 OFFCURVE",
"50 493 CURVE",
"50 420 LINE",
"102 414 OFFCURVE",
"130 385 OFFCURVE",
"130 337 CURVE SMOOTH",
"130 289 OFFCURVE",
"102 260 OFFCURVE",
"50 254 CURVE",
"50 181 LINE"
);
}
);
width = 254;
}
);
unicode = 16AF1;
script = default;
category = Mark;
subCategory = Nonspacing;
},
{
glyphname = u16AF2;
lastChange = "2021-12-14 16:45:12 +0000";
layers = (
{
anchors = (
{
name = _center;
position = "{102, 337}";
}
);
layerId = UUID0;
paths = (
{
closed = 1;
nodes = (
"130 363 OFFCURVE",
"154 386 OFFCURVE",
"154 415 CURVE SMOOTH",
"154 443 OFFCURVE",
"130 467 OFFCURVE",
"102 467 CURVE SMOOTH",
"74 467 OFFCURVE",
"50 443 OFFCURVE",
"50 415 CURVE SMOOTH",
"50 386 OFFCURVE",
"74 363 OFFCURVE",
"102 363 CURVE SMOOTH"
);
},
{
closed = 1;
nodes = (
"130 207 OFFCURVE",
"154 230 OFFCURVE",
"154 259 CURVE SMOOTH",
"154 287 OFFCURVE",
"130 311 OFFCURVE",
"102 311 CURVE SMOOTH",
"74 311 OFFCURVE",
"50 287 OFFCURVE",
"50 259 CURVE SMOOTH",
"50 230 OFFCURVE",
"74 207 OFFCURVE",
"102 207 CURVE SMOOTH"
);
}
);
width = 204;
},
{
anchors = (
{
name = _center;
position = "{106, 337}";
}
);
layerId = "B897597A-3AC7-4727-A83A-0CB44A91150E";
paths = (
{
closed = 1;
nodes = (
"137 357 OFFCURVE",
"162 382 OFFCURVE",
"162 413 CURVE SMOOTH",
"162 444 OFFCURVE",
"137 469 OFFCURVE",
"106 469 CURVE SMOOTH",
"76 469 OFFCURVE",
"50 444 OFFCURVE",
"50 413 CURVE SMOOTH",
"50 382 OFFCURVE",
"76 357 OFFCURVE",
"106 357 CURVE SMOOTH"
);
},
{
closed = 1;
nodes = (
"137 205 OFFCURVE",
"162 229 OFFCURVE",
"162 261 CURVE SMOOTH",
"162 291 OFFCURVE",
"137 317 OFFCURVE",
"106 317 CURVE SMOOTH",
"76 317 OFFCURVE",
"50 291 OFFCURVE",
"50 261 CURVE SMOOTH",
"50 229 OFFCURVE",
"76 205 OFFCURVE",
"106 205 CURVE SMOOTH"
);
}
);
width = 212;
}
);
unicode = 16AF2;
script = default;
category = Mark;
subCategory = Nonspacing;
},
{
glyphname = u16AF3;
lastChange = "2021-12-14 16:45:12 +0000";
layers = (
{
anchors = (
{
name = _center;
position = "{165, 447}";
}
);
layerId = UUID0;
paths = (
{
closed = 1;
nodes = (
"270 423 LINE",
"270 471 LINE",
"60 471 LINE",
"60 423 LINE"
);
}
);
width = 330;
},
{
anchors = (
{
name = _center;
position = "{145, 447}";
}
);
layerId = "B897597A-3AC7-4727-A83A-0CB44A91150E";
paths = (
{
closed = 1;
nodes = (
"234 412 LINE",
"234 482 LINE",
"55 482 LINE",
"55 412 LINE"
);
}
);
width = 289;
}
);
unicode = 16AF3;
script = default;
category = Mark;
subCategory = Nonspacing;
},
{
glyphname = u16AF4;
lastChange = "2021-12-14 16:45:12 +0000";
layers = (
{
anchors = (
{
name = _center;
position = "{129, 337}";
}
);
layerId = UUID0;
paths = (
{
closed = 1;
nodes = (
"189 192 OFFCURVE",
"247 255 OFFCURVE",
"247 337 CURVE SMOOTH",
"247 419 OFFCURVE",
"189 482 OFFCURVE",
"101 490 CURVE",
"101 436 LINE",
"160 428 OFFCURVE",
"193 389 OFFCURVE",
"193 337 CURVE SMOOTH",
"193 285 OFFCURVE",
"161 246 OFFCURVE",
"101 238 CURVE",
"101 184 LINE"
);
},
{
closed = 1;
nodes = (
"130 285 OFFCURVE",
"154 308 OFFCURVE",
"154 337 CURVE SMOOTH",
"154 365 OFFCURVE",
"130 389 OFFCURVE",
"102 389 CURVE SMOOTH",
"73 389 OFFCURVE",
"50 365 OFFCURVE",
"50 337 CURVE SMOOTH",
"50 308 OFFCURVE",
"73 285 OFFCURVE",
"102 285 CURVE SMOOTH"
);
}
);
width = 297;
},
{
anchors = (
{
name = _center;
position = "{119, 337}";
}
);
layerId = "B897597A-3AC7-4727-A83A-0CB44A91150E";
paths = (
{
closed = 1;
nodes = (
"196 185 OFFCURVE",
"255 249 OFFCURVE",
"255 337 CURVE SMOOTH",
"255 425 OFFCURVE",
"197 489 OFFCURVE",
"101 493 CURVE",
"101 420 LINE",
"153 414 OFFCURVE",
"181 385 OFFCURVE",
"181 337 CURVE SMOOTH",
"181 289 OFFCURVE",
"153 260 OFFCURVE",
"101 254 CURVE",
"101 181 LINE"
);
},
{
closed = 1;
nodes = (
"130 285 OFFCURVE",
"154 308 OFFCURVE",
"154 337 CURVE SMOOTH",
"154 365 OFFCURVE",
"130 389 OFFCURVE",
"102 389 CURVE SMOOTH",
"73 389 OFFCURVE",
"50 365 OFFCURVE",
"50 337 CURVE SMOOTH",
"50 308 OFFCURVE",
"73 285 OFFCURVE",
"102 285 CURVE SMOOTH"
);
}
);
width = 305;
}
);
unicode = 16AF4;
script = default;
category = Mark;
subCategory = Nonspacing;
},
{
glyphname = u16AF5;
lastChange = "2021-12-14 16:45:12 +0000";
layers = (
{
layerId = UUID0;
paths = (
{
closed = 1;
nodes = (
"325 0 LINE",
"325 608 LINE",
"251 608 LINE",
"251 0 LINE"
);
},
{
closed = 1;
nodes = (
"225 289 LINE",
"225 357 LINE",
"29 357 LINE",
"29 289 LINE"
);
},
{
closed = 1;
nodes = (
"548 289 LINE",
"548 357 LINE",
"352 357 LINE",
"352 289 LINE"
);
}
);
width = 586;
},
{
layerId = "B897597A-3AC7-4727-A83A-0CB44A91150E";
paths = (
{
closed = 1;
nodes = (
"386 0 LINE",
"386 616 LINE",
"251 616 LINE",
"251 0 LINE"
);
},
{
closed = 1;
nodes = (
"223 265 LINE",
"223 389 LINE",
"26 389 LINE",
"26 265 LINE"
);
},
{
closed = 1;
nodes = (
"611 265 LINE",
"611 389 LINE",
"414 389 LINE",
"414 265 LINE"
);
}
);
width = 646;
}
);
unicode = 16AF5;
script = "";
category = Other;
subCategory = Other;
},
{
glyphname = u16AF1.sm;
production = u16AF1.sm;
lastChange = "2021-12-14 16:45:12 +0000";
layers = (
{
anchors = (
{
name = _center;
position = "{59, 236}";
}
);
layerId = UUID0;
paths = (
{
closed = 1;
nodes = (
"112 135 OFFCURVE",
"152 178 OFFCURVE",
"152 236 CURVE SMOOTH",
"152 293 OFFCURVE",
"112 337 OFFCURVE",
"50 343 CURVE",
"50 305 LINE",
"92 300 OFFCURVE",
"115 272 OFFCURVE",
"115 236 CURVE SMOOTH",
"115 199 OFFCURVE",
"92 171 OFFCURVE",
"50 166 CURVE",
"50 129 LINE"
);
}
);
width = 202;
},
{
anchors = (
{
name = _center;
position = "{56, 236}";
}
);
layerId = "B897597A-3AC7-4727-A83A-0CB44A91150E";
paths = (
{
closed = 1;
nodes = (
"102 159 OFFCURVE",
"134 191 OFFCURVE",
"134 236 CURVE SMOOTH",
"134 281 OFFCURVE",
"102 313 OFFCURVE",
"50 316 CURVE",
"50 280 LINE",
"77 278 OFFCURVE",
"93 261 OFFCURVE",
"93 236 CURVE SMOOTH",
"93 210 OFFCURVE",
"77 194 OFFCURVE",
"50 192 CURVE",
"50 156 LINE"
);
}
);
width = 184;
}
);
script = default;
category = Mark;
subCategory = Nonspacing;
},
{
glyphname = u16AF2.sm;
production = u16AF2.sm;
lastChange = "2021-12-14 16:45:12 +0000";
layers = (
{
anchors = (
{
name = _center;
position = "{86, 236}";
}
);
layerId = UUID0;
paths = (
{
closed = 1;
nodes = (
"105 254 OFFCURVE",
"122 271 OFFCURVE",
"122 290 CURVE SMOOTH",
"122 311 OFFCURVE",
"105 327 OFFCURVE",
"86 327 CURVE SMOOTH",
"66 327 OFFCURVE",
"50 311 OFFCURVE",
"50 290 CURVE SMOOTH",
"50 271 OFFCURVE",
"66 254 OFFCURVE",
"86 254 CURVE SMOOTH"
);
},
{
closed = 1;
nodes = (
"105 145 OFFCURVE",
"122 161 OFFCURVE",
"122 181 CURVE SMOOTH",
"122 201 OFFCURVE",
"105 217 OFFCURVE",
"86 217 CURVE SMOOTH",
"66 217 OFFCURVE",
"50 201 OFFCURVE",
"50 181 CURVE SMOOTH",
"50 161 OFFCURVE",
"66 145 OFFCURVE",
"86 145 CURVE SMOOTH"
);
}
);
width = 172;
},
{
anchors = (
{
name = _center;
position = "{84, 236}";
}
);
layerId = "B897597A-3AC7-4727-A83A-0CB44A91150E";
paths = (
{
closed = 1;
nodes = (
"101 248 OFFCURVE",
"117 264 OFFCURVE",
"117 282 CURVE SMOOTH",
"117 301 OFFCURVE",
"101 316 OFFCURVE",
"84 316 CURVE SMOOTH",
"65 316 OFFCURVE",
"50 301 OFFCURVE",
"50 282 CURVE SMOOTH",
"50 264 OFFCURVE",
"65 248 OFFCURVE",
"84 248 CURVE SMOOTH"
);
},
{
closed = 1;
nodes = (
"101 156 OFFCURVE",
"117 171 OFFCURVE",
"117 189 CURVE SMOOTH",
"117 208 OFFCURVE",
"101 223 OFFCURVE",
"84 223 CURVE SMOOTH",
"65 223 OFFCURVE",
"50 208 OFFCURVE",
"50 189 CURVE SMOOTH",
"50 171 OFFCURVE",
"65 156 OFFCURVE",
"84 156 CURVE SMOOTH"
);
}
);
width = 167;
}
);
script = default;
category = Mark;
subCategory = Nonspacing;
},
{
glyphname = u16AF4.sm;
production = u16AF4.sm;
lastChange = "2021-12-14 16:45:12 +0000";
layers = (
{
anchors = (
{
name = _center;
position = "{85, 236}";
}
);
layerId = UUID0;
paths = (
{
closed = 1;
nodes = (
"147 135 OFFCURVE",
"187 178 OFFCURVE",
"187 236 CURVE SMOOTH",
"187 293 OFFCURVE",
"147 337 OFFCURVE",
"85 343 CURVE",
"85 305 LINE",
"127 300 OFFCURVE",
"150 272 OFFCURVE",
"150 236 CURVE SMOOTH",
"150 199 OFFCURVE",
"127 171 OFFCURVE",
"85 166 CURVE",
"85 129 LINE"
);
},
{
closed = 1;
nodes = (
"106 199 OFFCURVE",
"123 216 OFFCURVE",
"123 236 CURVE SMOOTH",
"123 256 OFFCURVE",
"106 272 OFFCURVE",
"86 272 CURVE SMOOTH",
"66 272 OFFCURVE",
"50 256 OFFCURVE",
"50 236 CURVE SMOOTH",
"50 216 OFFCURVE",
"66 199 OFFCURVE",
"86 199 CURVE SMOOTH"
);
}
);
width = 237;
},
{
anchors = (
{
name = _center;
position = "{86, 235}";
}
);
layerId = "B897597A-3AC7-4727-A83A-0CB44A91150E";
paths = (
{
closed = 1;
nodes = (
"127 159 OFFCURVE",
"158 191 OFFCURVE",
"158 236 CURVE SMOOTH",
"158 281 OFFCURVE",
"127 313 OFFCURVE",
"74 316 CURVE",
"74 280 LINE",
"102 278 OFFCURVE",
"117 261 OFFCURVE",
"117 236 CURVE SMOOTH",
"117 210 OFFCURVE",
"102 194 OFFCURVE",
"74 192 CURVE",
"74 156 LINE"
);
},
{
closed = 1;
nodes = (
"89 210 OFFCURVE",
"100 222 OFFCURVE",
"100 236 CURVE SMOOTH",
"100 249 OFFCURVE",
"89 261 OFFCURVE",
"75 261 CURVE SMOOTH",
"61 261 OFFCURVE",
"50 249 OFFCURVE",
"50 236 CURVE SMOOTH",
"50 222 OFFCURVE",
"61 210 OFFCURVE",
"75 210 CURVE SMOOTH"
);
}
);
width = 208;
}
);
script = default;
category = Mark;
subCategory = Nonspacing;
},
{
glyphname = u16AF1.sm1;
production = u16AF1.sm1;
lastChange = "2021-12-14 16:45:12 +0000";
layers = (
{
anchors = (
{
name = _center;
position = "{92, 337}";
}
);
layerId = UUID0;
paths = (
{
closed = 1;
nodes = (
"138 192 OFFCURVE",
"196 255 OFFCURVE",
"196 337 CURVE SMOOTH",
"196 419 OFFCURVE",
"139 482 OFFCURVE",
"50 490 CURVE",
"50 436 LINE",
"109 428 OFFCURVE",
"142 389 OFFCURVE",
"142 337 CURVE SMOOTH",
"142 285 OFFCURVE",
"109 246 OFFCURVE",
"50 238 CURVE",
"50 184 LINE"
);
}
);
width = 246;
},
{
anchors = (
{
name = _center;
position = "{119, 337}";
}
);
layerId = "B897597A-3AC7-4727-A83A-0CB44A91150E";
paths = (
{
closed = 1;
nodes = (
"155 195 OFFCURVE",
"210 255 OFFCURVE",
"210 337 CURVE SMOOTH",
"210 419 OFFCURVE",
"156 480 OFFCURVE",
"68 483 CURVE",
"68 418 LINE",
"119 412 OFFCURVE",
"146 384 OFFCURVE",
"146 337 CURVE SMOOTH",
"146 290 OFFCURVE",
"119 262 OFFCURVE",
"68 256 CURVE",
"68 191 LINE"
);
}
);
width = 254;
}
);
script = default;
category = Mark;
subCategory = Nonspacing;
},
{
glyphname = u16AF4.sm1;
production = u16AF4.sm1;
lastChange = "2021-12-14 16:45:12 +0000";
layers = (
{
anchors = (
{
name = _center;
position = "{148, 337}";
}
);
layerId = UUID0;
paths = (
{
closed = 1;
nodes = (
"189 192 OFFCURVE",
"247 255 OFFCURVE",
"247 337 CURVE SMOOTH",
"247 419 OFFCURVE",
"189 482 OFFCURVE",
"101 490 CURVE",
"101 436 LINE",
"160 428 OFFCURVE",
"193 389 OFFCURVE",
"193 337 CURVE SMOOTH",
"193 285 OFFCURVE",
"161 246 OFFCURVE",
"101 238 CURVE",
"101 184 LINE"
);
},
{
closed = 1;
nodes = (
"130 285 OFFCURVE",
"154 308 OFFCURVE",
"154 337 CURVE SMOOTH",
"154 365 OFFCURVE",
"130 389 OFFCURVE",
"102 389 CURVE SMOOTH",
"73 389 OFFCURVE",
"50 365 OFFCURVE",
"50 337 CURVE SMOOTH",
"50 308 OFFCURVE",
"73 285 OFFCURVE",
"102 285 CURVE SMOOTH"
);
}
);
width = 297;
},
{
anchors = (
{
name = _center;
position = "{154, 337}";
}
);
layerId = "B897597A-3AC7-4727-A83A-0CB44A91150E";
paths = (
{
closed = 1;
nodes = (
"193 195 OFFCURVE",
"248 255 OFFCURVE",
"248 337 CURVE SMOOTH",
"248 419 OFFCURVE",
"194 480 OFFCURVE",
"106 483 CURVE",
"106 418 LINE",
"157 412 OFFCURVE",
"184 384 OFFCURVE",
"184 337 CURVE SMOOTH",
"184 290 OFFCURVE",
"157 262 OFFCURVE",
"106 256 CURVE",
"106 191 LINE"
);
},
{
closed = 1;
nodes = (
"137 288 OFFCURVE",
"159 310 OFFCURVE",
"159 337 CURVE SMOOTH",
"159 363 OFFCURVE",
"137 386 OFFCURVE",
"110 386 CURVE SMOOTH",
"84 386 OFFCURVE",
"63 363 OFFCURVE",
"63 337 CURVE SMOOTH",
"63 310 OFFCURVE",
"84 288 OFFCURVE",
"110 288 CURVE SMOOTH"
);
}
);
width = 305;
}
);
script = default;
category = Mark;
subCategory = Nonspacing;
},
{
glyphname = u16AF1.sm2;
production = u16AF1.sm2;
lastChange = "2021-12-14 16:45:12 +0000";
layers = (
{
anchors = (
{
name = _center;
position = "{92, 337}";
}
);
layerId = UUID0;
paths = (
{
closed = 1;
nodes = (
"138 192 OFFCURVE",
"196 255 OFFCURVE",
"196 337 CURVE SMOOTH",
"196 419 OFFCURVE",
"139 482 OFFCURVE",
"50 490 CURVE",
"50 436 LINE",
"109 428 OFFCURVE",
"142 389 OFFCURVE",
"142 337 CURVE SMOOTH",
"142 285 OFFCURVE",
"109 246 OFFCURVE",
"50 238 CURVE",
"50 184 LINE"
);
}
);
width = 246;
},
{
anchors = (
{
name = _center;
position = "{119, 337}";
}
);
layerId = "B897597A-3AC7-4727-A83A-0CB44A91150E";
paths = (
{
closed = 1;
nodes = (
"159 210 OFFCURVE",
"210 264 OFFCURVE",
"210 337 CURVE SMOOTH",
"210 410 OFFCURVE",
"159 464 OFFCURVE",
"77 468 CURVE",
"77 404 LINE",
"122 398 OFFCURVE",
"146 376 OFFCURVE",
"146 337 CURVE SMOOTH",
"146 298 OFFCURVE",
"122 276 OFFCURVE",
"77 270 CURVE",
"77 206 LINE"
);
}
);
width = 254;
}
);
script = default;
category = Mark;
subCategory = Nonspacing;
},
